<svg width="98" height="57" viewBox="0 0 98 57" fill="none" xmlns="http://www.w3.org/2000/svg">
<path fill-rule="evenodd" clip-rule="evenodd" d="M28.7447 4.75146C26.1959 6.06962 21.0612 7.00799 12.4755 7.11057C8.18902 7.16178 5.4592 7.65829 3.8272 8.38482C3.01258 8.74747 2.48026 9.1636 2.16167 9.6017C1.84502 10.0371 1.73357 10.5022 1.77327 10.9787C1.85362 11.9433 2.55581 12.9694 3.48907 13.8552C4.41795 14.7367 5.54902 15.4537 6.43784 15.8055L6.33078 16.076C5.40347 15.709 4.24144 14.9703 3.28881 14.0662C2.34057 13.1662 1.57282 12.0767 1.48336 11.0028C1.43815 10.4601 1.56682 9.92507 1.9264 9.43061C2.28403 8.93882 2.86403 8.49517 3.70889 8.11906C5.39585 7.36805 8.17366 6.87103 12.472 6.81968C21.056 6.71713 26.1287 5.77687 28.611 4.49307C29.8525 3.85101 30.4087 3.14323 30.4768 2.44481C30.5452 1.74321 30.1284 0.982559 29.2568 0.218795L29.4485 0C30.3449 0.785472 30.8485 1.63076 30.7664 2.47304C30.6839 3.3185 30.0187 4.09254 28.7447 4.75146ZM16.9367 22.2306L16.6025 21.6549L10.0963 10.4472L9.76074 9.86914H10.4291H23.4443H24.1126L23.7771 10.4472L17.2709 21.6549L16.9367 22.2306ZM23.1087 10.4472L16.9367 21.0792L10.7647 10.4472H23.1087ZM33.2359 57.0017L16.618 21.8691L0 57.0017H33.2359ZM13.2024 4.62892C14.6935 3.27279 15.7527 2.58907 16.8131 2.56784C17.8714 2.54665 18.9786 3.18526 20.5658 4.62892L20.7616 4.41371C19.1733 2.96909 17.99 2.25331 16.8073 2.27699C15.6265 2.30063 14.4939 3.06105 13.0066 4.41371L13.2024 4.62892Z" fill="white"/>
<path d="M84.7718 37.2673C85.0145 37.2673 85.2245 37.3559 85.4018 37.5333C85.5791 37.7106 85.6678 37.9206 85.6678 38.1633C85.6678 38.4059 85.5791 38.6159 85.4018 38.7933C85.2245 38.9706 85.0145 39.0593 84.7718 39.0593C84.5291 39.0593 84.3191 38.9706 84.1418 38.7933C83.9645 38.6159 83.8758 38.4059 83.8758 38.1633C83.8758 37.9206 83.9645 37.7106 84.1418 37.5333C84.3191 37.3559 84.5291 37.2673 84.7718 37.2673ZM91.0982 31.4573C91.3502 31.4573 91.5696 31.5086 91.7562 31.6113C91.9522 31.7139 92.1016 31.8493 92.2042 32.0173C92.3162 32.1759 92.3722 32.3579 92.3722 32.5633C92.3722 32.7966 92.2976 33.0019 92.1482 33.1793C92.0082 33.3566 91.8169 33.4453 91.5742 33.4453C91.3782 33.4453 91.2056 33.3846 91.0562 33.2633C90.9069 33.1326 90.8322 32.9506 90.8322 32.7173C90.8322 32.5399 90.8789 32.3906 90.9722 32.2693C91.0749 32.1386 91.1869 32.0359 91.3082 31.9613C91.2429 31.8679 91.1449 31.8213 91.0142 31.8213C90.7249 31.8213 90.4589 31.9099 90.2162 32.0873C89.9736 32.2553 89.7682 32.4746 89.6002 32.7453C89.4322 33.0159 89.3016 33.3053 89.2082 33.6133C89.1149 33.9119 89.0682 34.1919 89.0682 34.4533V37.4213C89.0682 37.8786 89.1989 38.1866 89.4602 38.3453C89.7309 38.4946 90.0949 38.5693 90.5522 38.5693V38.8633C90.3376 38.8539 90.0342 38.8446 89.6422 38.8353C89.2502 38.8166 88.8349 38.8073 88.3962 38.8073C88.0789 38.8073 87.7616 38.8166 87.4442 38.8353C87.1362 38.8446 86.9029 38.8539 86.7442 38.8633V38.5693C87.1269 38.5693 87.3976 38.4993 87.5562 38.3593C87.7242 38.2193 87.8082 37.9533 87.8082 37.5613V33.1793C87.8082 32.7593 87.7336 32.4513 87.5842 32.2553C87.4349 32.0499 87.1549 31.9473 86.7442 31.9473V31.6533C87.0429 31.6813 87.3322 31.6953 87.6122 31.6953C87.8829 31.6953 88.1396 31.6813 88.3822 31.6533C88.6342 31.6159 88.8629 31.5646 89.0682 31.4993V33.2493C89.1709 32.9786 89.3156 32.7079 89.5022 32.4373C89.6982 32.1573 89.9316 31.9239 90.2022 31.7373C90.4729 31.5506 90.7716 31.4573 91.0982 31.4573ZM96.185 27.9153C96.4463 27.9153 96.675 27.9526 96.871 28.0273C97.0763 28.0926 97.2537 28.1813 97.403 28.2933C97.543 28.4053 97.6503 28.5359 97.725 28.6853C97.7997 28.8346 97.837 28.9933 97.837 29.1613C97.837 29.3759 97.767 29.5533 97.627 29.6933C97.487 29.8333 97.3097 29.9033 97.095 29.9033C96.8897 29.9033 96.7077 29.8379 96.549 29.7073C96.3997 29.5673 96.325 29.3806 96.325 29.1473C96.325 28.9513 96.3763 28.7926 96.479 28.6713C96.591 28.5499 96.7357 28.4706 96.913 28.4333C96.885 28.3493 96.8103 28.2793 96.689 28.2233C96.577 28.1579 96.423 28.1253 96.227 28.1253C96.0123 28.1253 95.8257 28.1719 95.667 28.2653C95.5177 28.3586 95.401 28.4846 95.317 28.6433C95.205 28.8393 95.135 29.1333 95.107 29.5253C95.079 29.9079 95.065 30.5006 95.065 31.3033V31.6673H96.563V31.9473H95.065V37.4213C95.065 37.8786 95.1957 38.1866 95.457 38.3453C95.7277 38.4946 96.0917 38.5693 96.549 38.5693V38.8633C96.3343 38.8539 96.031 38.8446 95.639 38.8353C95.247 38.8166 94.8317 38.8073 94.393 38.8073C94.0757 38.8073 93.7583 38.8166 93.441 38.8353C93.133 38.8446 92.8997 38.8539 92.741 38.8633V38.5693C93.1237 38.5693 93.3943 38.4993 93.553 38.3593C93.721 38.2193 93.805 37.9533 93.805 37.5613V31.9473H92.685V31.6673H93.805C93.805 31.1166 93.8283 30.6546 93.875 30.2813C93.9217 29.9079 93.9963 29.5906 94.099 29.3293C94.2017 29.0586 94.3417 28.8206 94.519 28.6153C94.7057 28.4006 94.9437 28.2326 95.233 28.1113C95.5223 27.9806 95.8397 27.9153 96.185 27.9153Z" fill="white"/>
<path d="M43.0804 42.2393C42.1057 42.2393 41.063 42.1033 39.9524 41.8313C38.8417 41.5819 37.7537 41.2306 36.6884 40.7773C35.6457 40.3013 34.705 39.7686 33.8664 39.1793C33.0504 38.5899 32.4384 37.9553 32.0304 37.2753C31.849 37.2753 31.645 37.2866 31.4184 37.3093C31.1917 37.3319 30.9537 37.3433 30.7044 37.3433C30.4324 37.3433 30.0924 37.2979 29.6844 37.2073C29.2764 37.1166 28.9137 36.9579 28.5964 36.7313C28.279 36.5046 28.1204 36.1986 28.1204 35.8133C28.1204 35.6319 28.245 35.4733 28.4944 35.3373C28.7664 35.2013 29.265 35.1333 29.9904 35.1333C31.3957 35.1333 32.3704 35.5639 32.9144 36.4253C33.6624 36.5159 34.4557 36.5839 35.2944 36.6293C36.133 36.6746 36.9944 36.6973 37.8784 36.6973C38.785 36.6973 39.6917 36.6746 40.5984 36.6293C41.5277 36.5839 42.4457 36.5046 43.3524 36.3913C42.8537 35.5979 42.287 34.8046 41.6524 34.0113C41.0404 33.2179 40.553 32.5719 40.1904 32.0733C39.3517 30.9399 38.5244 29.7726 37.7084 28.5713C36.8924 27.3473 36.1104 25.9646 35.3624 24.4233C35.0677 23.8339 34.9204 23.2333 34.9204 22.6213C34.9204 21.7146 35.2037 20.8646 35.7704 20.0713C36.337 19.2553 37.051 18.5073 37.9124 17.8273C38.7737 17.1473 39.6804 16.5579 40.6324 16.0593C41.607 15.5379 42.4797 15.1073 43.2504 14.7673C44.0664 14.4273 44.8937 14.1666 45.7324 13.9853C46.571 13.7813 47.3757 13.6793 48.1464 13.6793C48.5997 13.6793 49.0304 13.7133 49.4384 13.7813C50.005 13.8719 50.549 14.1779 51.0704 14.6993C51.6144 15.1979 52.0677 15.7986 52.4304 16.5013C52.793 17.1813 52.9744 17.8613 52.9744 18.5413C52.9744 19.1759 52.8157 19.9126 52.4984 20.7513C52.2037 21.5673 51.8184 22.4059 51.3424 23.2673C50.8664 24.1059 50.3564 24.8993 49.8124 25.6473C49.2684 26.3726 48.7584 26.9619 48.2824 27.4153C47.829 27.8686 47.4664 28.0953 47.1944 28.0953C46.809 28.0953 46.4577 27.8913 46.1404 27.4833C45.8457 27.0753 45.6984 26.7579 45.6984 26.5313C45.6984 26.3953 45.7324 26.3159 45.8004 26.2933C46.4124 25.8399 47.0584 25.2279 47.7384 24.4573C48.4184 23.6866 49.0417 22.8593 49.6084 21.9753C50.1977 21.0686 50.6737 20.1846 51.0364 19.3233C51.4217 18.4393 51.6144 17.6799 51.6144 17.0453C51.6144 16.3199 51.3424 15.8326 50.7984 15.5833C50.277 15.3113 49.6197 15.1753 48.8264 15.1753C48.0784 15.1753 47.285 15.2999 46.4464 15.5493C45.6077 15.7759 44.871 16.0479 44.2364 16.3653C42.1737 17.3853 40.587 18.3713 39.4764 19.3233C38.3657 20.2526 37.595 21.1253 37.1644 21.9413C36.7564 22.7573 36.5524 23.5053 36.5524 24.1853C36.5524 24.8879 36.8924 25.8286 37.5724 27.0073C38.2524 28.1633 39.4084 29.7273 41.0404 31.6993C41.6524 32.4473 42.3097 33.2066 43.0124 33.9773C43.7377 34.7253 44.395 35.4506 44.9844 36.1533C46.0497 35.9719 47.0357 35.7453 47.9424 35.4733C48.8717 35.2013 49.6877 34.8839 50.3904 34.5213C50.413 34.4986 50.447 34.4873 50.4924 34.4873C50.5604 34.4873 50.5944 34.5213 50.5944 34.5893C50.5944 34.7706 50.515 34.9066 50.3564 34.9973C49.8577 35.3599 49.189 35.6886 48.3504 35.9833C47.5117 36.2779 46.5597 36.5386 45.4944 36.7653C45.9477 37.3093 46.3104 37.8306 46.5824 38.3293C46.8544 38.8053 46.9904 39.2359 46.9904 39.6213C46.9904 40.5506 46.6164 41.2193 45.8684 41.6273C45.143 42.0353 44.2137 42.2393 43.0804 42.2393ZM41.4144 41.0493C42.2984 41.0493 43.0237 40.8906 43.5904 40.5733C44.1797 40.2559 44.4744 39.7686 44.4744 39.1113C44.4744 38.8393 44.4064 38.5333 44.2704 38.1933C44.1344 37.8306 43.953 37.4566 43.7264 37.0713C41.6184 37.3886 39.4424 37.5473 37.1984 37.5473C35.8837 37.5473 34.6257 37.4793 33.4244 37.3433C33.9684 38.0686 34.6824 38.7146 35.5664 39.2813C36.473 39.8479 37.4364 40.2899 38.4564 40.6073C39.499 40.9019 40.485 41.0493 41.4144 41.0493ZM57.8209 41.4573C57.0275 41.4573 56.3815 41.2079 55.8829 40.7093C55.3842 40.1879 54.9989 39.5193 54.7269 38.7033C54.4775 37.8873 54.3075 37.0146 54.2169 36.0853C54.1262 35.1333 54.0809 34.2379 54.0809 33.3993C54.0809 32.9006 54.0922 32.4473 54.1149 32.0393C54.1375 31.6086 54.1602 31.2459 54.1829 30.9513C54.2282 30.0899 54.3075 29.1493 54.4209 28.1293C54.5342 27.0866 54.6702 26.0213 54.8289 24.9333C53.6502 25.1146 52.5735 25.2619 51.5989 25.3753C50.6015 25.4886 49.7742 25.5453 49.1169 25.5453C49.0262 25.5453 48.8902 25.4319 48.7089 25.2053C48.5275 24.9786 48.3915 24.7406 48.3009 24.4913C48.1875 24.2419 48.1762 24.1286 48.2669 24.1513C48.4935 24.1739 48.7089 24.1966 48.9129 24.2193C49.1169 24.2193 49.3322 24.2193 49.5589 24.2193C50.2389 24.2193 50.9982 24.1739 51.8369 24.0833C52.6529 23.9926 53.7069 23.8793 54.9989 23.7433C55.1802 22.6099 55.3729 21.4879 55.5769 20.3773C55.8035 19.2666 56.0302 18.2126 56.2569 17.2153C56.3702 16.7619 56.4722 16.3993 56.5629 16.1273C56.6762 15.8553 56.8802 15.7419 57.1749 15.7873C57.4469 15.8326 57.7302 15.9346 58.0249 16.0933C58.3195 16.2519 58.5235 16.4333 58.6369 16.6373C59.0902 17.0679 59.4189 17.6119 59.6229 18.2693C59.8269 18.9039 59.9289 19.6179 59.9289 20.4113C59.9289 21.2499 59.8269 22.1679 59.6229 23.1653C60.8695 22.9839 62.1502 22.7686 63.4649 22.5193C64.8022 22.2473 66.0942 21.9753 67.3409 21.7033C68.6102 21.4086 69.7549 21.1479 70.7749 20.9213C70.9335 20.8759 70.9562 20.8986 70.8429 20.9893C70.7295 21.0573 70.5709 21.1366 70.3669 21.2273C70.1629 21.3179 69.9929 21.3859 69.8569 21.4313C68.4289 21.9299 66.7969 22.4173 64.9609 22.8933C63.1249 23.3693 61.2775 23.7886 59.4189 24.1513C59.0562 25.6699 58.5462 27.2453 57.8889 28.8773C57.2315 30.4866 56.5402 32.0393 55.8149 33.5353C55.8149 33.7619 55.8035 33.9886 55.7809 34.2153C55.7809 34.4193 55.7809 34.6346 55.7809 34.8613C55.7809 35.9719 55.8375 36.9693 55.9509 37.8533C56.0869 38.7146 56.3022 39.4173 56.5969 39.9613C56.8009 40.3466 57.0275 40.6186 57.2769 40.7773C57.5489 40.9133 57.8095 40.9813 58.0589 40.9813C58.3082 40.9813 58.5462 40.9359 58.7729 40.8453C58.9995 40.7546 59.1695 40.6866 59.2829 40.6413C59.5322 40.5279 59.7022 40.4826 59.7929 40.5053C59.8835 40.5279 59.8722 40.5959 59.7589 40.7093C59.6909 40.7999 59.4869 40.9473 59.1469 41.1513C58.8069 41.3553 58.3649 41.4573 57.8209 41.4573ZM57.1749 23.5053L57.6509 23.4373L58.8409 23.3013C58.9542 22.7799 59.0335 22.2813 59.0789 21.8053C59.1469 21.3293 59.1809 20.8759 59.1809 20.4453C59.1809 19.2666 58.9655 18.3259 58.5349 17.6233C58.2855 18.5299 58.0475 19.4819 57.8209 20.4793C57.5942 21.4766 57.3789 22.4853 57.1749 23.5053ZM55.9169 31.7673C56.4609 30.5206 56.9709 29.2626 57.4469 27.9933C57.9229 26.7239 58.3082 25.4999 58.6029 24.3213C58.3082 24.3666 58.0249 24.4119 57.7529 24.4573C57.4809 24.5026 57.2089 24.5479 56.9369 24.5933C56.7102 25.8173 56.5062 27.0413 56.3249 28.2653C56.1662 29.4666 56.0302 30.6339 55.9169 31.7673ZM60.8441 56.8593C60.5947 56.8593 60.4701 56.7573 60.4701 56.5533C60.4701 56.4173 60.5154 56.2926 60.6061 56.1793C60.9234 55.4766 61.2974 54.5813 61.7281 53.4933C62.1814 52.4279 62.6574 51.2379 63.1561 49.9233C63.6547 48.6086 64.1421 47.2373 64.6181 45.8093C65.0941 44.3813 65.5247 42.9646 65.9101 41.5593C65.2981 42.0579 64.6747 42.5793 64.0401 43.1233C63.4054 43.6673 62.7934 44.3246 62.2041 45.0953C61.4561 46.0246 60.8781 47.1239 60.4701 48.3933C60.0847 49.6853 59.8921 50.8753 59.8921 51.9633C59.8921 53.2779 60.1641 54.2639 60.7081 54.9213C60.7761 54.9893 60.8101 55.0346 60.8101 55.0573C60.8101 55.0573 60.7987 55.0573 60.7761 55.0573C60.7761 55.0799 60.7647 55.0913 60.7421 55.0913C60.6514 55.0913 60.5381 55.0573 60.4021 54.9893C60.2887 54.9213 60.1754 54.8193 60.0621 54.6833C59.6087 54.2073 59.2801 53.6293 59.0761 52.9493C58.8494 52.2919 58.7361 51.5779 58.7361 50.8073C58.7361 49.9233 58.9061 49.0279 59.2461 48.1213C59.5861 47.2146 60.0847 46.3646 60.7421 45.5713C61.6714 44.4379 62.6121 43.4519 63.5641 42.6133C64.5161 41.7746 65.4114 40.9813 66.2501 40.2333C66.4767 39.3493 66.6694 38.4879 66.8281 37.6493C66.9867 36.8106 67.1001 36.0173 67.1681 35.2693C67.2361 34.4533 67.2814 33.7166 67.3041 33.0593C67.3267 32.3793 67.3381 31.7673 67.3381 31.2233C67.3381 30.6113 67.3041 30.0899 67.2361 29.6593C66.8734 30.1579 66.5107 30.8039 66.1481 31.5973C65.7854 32.3906 65.4454 33.2179 65.1281 34.0793C64.8334 34.9406 64.5954 35.7566 64.4141 36.5273C64.2327 37.2753 64.1421 37.8646 64.1421 38.2953C64.1421 38.3859 64.1421 38.4653 64.1421 38.5333C64.1647 38.6013 64.1761 38.6693 64.1761 38.7373C64.1761 38.8733 64.0174 38.9413 63.7001 38.9413C62.9974 38.9413 62.4987 38.8166 62.2041 38.5673C61.9094 38.3179 61.7621 37.9439 61.7621 37.4453C61.7621 36.9693 61.7847 36.3686 61.8301 35.6433C61.8754 34.8953 61.9094 34.1133 61.9321 33.2973C61.9774 32.4586 62.0001 31.6653 62.0001 30.9173C62.0001 29.6253 61.9207 28.7073 61.7621 28.1633C61.6034 27.6193 61.3314 27.3473 60.9461 27.3473C60.7647 27.3473 60.5494 27.4266 60.3001 27.5853C60.0507 27.7213 59.7674 27.7893 59.4501 27.7893C59.3367 27.7893 59.2574 27.7553 59.2121 27.6873C59.2347 27.7326 59.3367 27.6646 59.5181 27.4833C59.7221 27.3019 60.0507 27.1093 60.5041 26.9053C60.9801 26.7013 61.6261 26.5993 62.4421 26.5993C62.8501 26.5993 63.1561 26.6559 63.3601 26.7693C63.5867 26.8599 63.7341 27.1319 63.8021 27.5853C63.8701 28.0386 63.9041 28.7979 63.9041 29.8633C63.9041 30.6566 63.8814 31.5406 63.8361 32.5153C63.7907 33.4673 63.7341 34.3739 63.6661 35.2353C63.5981 36.0966 63.5187 36.8106 63.4281 37.3773C63.5641 36.9466 63.7567 36.3799 64.0061 35.6773C64.2554 34.9746 64.5274 34.2153 64.8221 33.3993C65.1394 32.5606 65.4341 31.7559 65.7061 30.9853C66.0007 30.1919 66.2614 29.5119 66.4881 28.9453C66.7147 28.3786 66.8621 27.9933 66.9301 27.7893V27.7553C66.9301 27.7326 66.9301 27.7213 66.9301 27.7213C66.9527 27.7213 66.9641 27.7099 66.9641 27.6873V27.7213C67.0321 27.6533 67.1681 27.6193 67.3721 27.6193C67.8481 27.6193 68.1767 27.8346 68.3581 28.2653C68.5621 28.6959 68.6867 29.2286 68.7321 29.8633C68.7774 30.4979 68.8001 31.1213 68.8001 31.7333C68.8001 32.7759 68.7321 33.8753 68.5961 35.0313C68.4827 36.1646 68.3354 37.3206 68.1541 38.4993C68.6074 38.0459 69.0267 37.5699 69.4121 37.0713C69.7974 36.5726 70.1261 36.0399 70.3981 35.4733C70.5114 35.2013 70.6587 34.9746 70.8401 34.7933C71.0214 34.6119 71.1574 34.5213 71.2481 34.5213C71.2934 34.5213 71.3161 34.5666 71.3161 34.6573C71.3161 34.8159 71.2367 35.0653 71.0781 35.4053C70.6474 36.4479 70.1487 37.3319 69.5821 38.0573C69.0381 38.7599 68.4714 39.3946 67.8821 39.9613C67.5194 41.7066 67.1114 43.4066 66.6581 45.0613C66.2047 46.7159 65.7514 48.2119 65.2981 49.5493C64.8447 50.9093 64.4481 52.0199 64.1081 52.8813C63.7681 53.7653 63.5414 54.3093 63.4281 54.5133C62.9747 55.3519 62.4987 55.9526 62.0001 56.3153C61.5241 56.6779 61.1387 56.8593 60.8441 56.8593ZM75.0576 42.2053C74.7402 42.2053 74.4456 42.1599 74.1736 42.0693C73.3122 41.8199 72.6209 41.3326 72.0996 40.6073C71.6009 39.8819 71.2382 38.9979 71.0116 37.9553C70.8076 36.9126 70.7056 35.8133 70.7056 34.6573C70.7056 34.0226 70.7282 33.3879 70.7736 32.7533C70.8189 32.1186 70.8869 31.4953 70.9776 30.8833C71.1589 29.5913 71.4196 28.1633 71.7596 26.5993C72.1222 25.0353 72.5302 23.4486 72.9836 21.8393C73.4369 20.2299 73.9016 18.7113 74.3776 17.2833C74.5589 16.8526 74.7176 16.5013 74.8536 16.2293C74.9896 15.9573 75.2049 15.8666 75.4996 15.9573C75.7262 16.0253 75.9529 16.1386 76.1796 16.2973C76.4289 16.4333 76.6216 16.5919 76.7576 16.7733C77.3696 17.4759 77.6756 18.4619 77.6756 19.7313C77.6756 20.8873 77.4489 22.1906 76.9956 23.6413C76.5422 25.0693 75.9416 26.4973 75.1936 27.9253C74.4682 29.3533 73.6522 30.6679 72.7456 31.8693C72.5416 33.1839 72.4396 34.4306 72.4396 35.6093C72.4396 36.5386 72.5076 37.3999 72.6436 38.1933C72.8022 38.9866 73.0402 39.6779 73.3576 40.2673C73.6296 40.7659 73.9242 41.1059 74.2416 41.2873C74.5816 41.4686 74.8989 41.5593 75.1936 41.5593C75.5109 41.5593 75.7942 41.5026 76.0436 41.3893C76.3156 41.2759 76.5309 41.1853 76.6896 41.1173C76.8709 41.0039 77.0296 40.9473 77.1656 40.9473C77.3469 40.9473 77.3696 41.0379 77.2336 41.2193C77.1429 41.3326 76.9049 41.5253 76.5196 41.7973C76.1342 42.0693 75.6469 42.2053 75.0576 42.2053ZM72.9836 30.4073C73.7089 29.2739 74.3662 28.0839 74.9556 26.8373C75.5676 25.5679 76.0549 24.3326 76.4176 23.1313C76.8029 21.9073 76.9956 20.8193 76.9956 19.8673C76.9956 19.5046 76.9616 19.1646 76.8936 18.8473C76.8482 18.5299 76.7576 18.2466 76.6216 17.9973C75.8509 19.9239 75.1369 21.9753 74.4796 24.1513C73.8449 26.3046 73.3462 28.3899 72.9836 30.4073ZM79.2702 40.4033C78.4996 40.4033 77.8989 40.1539 77.4682 39.6553C77.0602 39.1566 76.7769 38.5219 76.6182 37.7513C76.4822 36.9579 76.4142 36.1646 76.4142 35.3713C76.4142 34.8273 76.4369 34.3173 76.4822 33.8413C76.5276 33.3426 76.5729 32.9119 76.6182 32.5493C76.7316 31.6199 76.8789 30.7246 77.0602 29.8633C77.2416 29.0019 77.4116 28.2653 77.5702 27.6533C77.7516 27.0413 77.8649 26.6446 77.9102 26.4633C78.0009 26.1459 78.1709 25.9873 78.4202 25.9873C78.6696 25.9873 78.9529 26.1573 79.2702 26.4973C79.5876 26.8146 79.8142 27.0753 79.9502 27.2793C80.4716 27.4379 80.9816 27.6306 81.4802 27.8573C81.9789 28.0613 82.3869 28.2879 82.7042 28.5373C83.0442 28.7866 83.2142 29.0586 83.2142 29.3533C83.2142 29.9199 82.9762 30.4866 82.5002 31.0533C82.0242 31.6199 81.4236 32.1413 80.6982 32.6173C79.9729 33.0933 79.2362 33.5013 78.4882 33.8413C78.4202 34.3853 78.3862 34.9293 78.3862 35.4733C78.3862 36.3799 78.4996 37.1733 78.7262 37.8533C78.9529 38.5333 79.3382 38.8733 79.8822 38.8733C80.3582 38.8733 80.8116 38.7033 81.2422 38.3633C81.6956 38.0233 82.1149 37.5926 82.5002 37.0713C82.8856 36.5499 83.2256 36.0286 83.5202 35.5073C83.8376 34.9633 84.0756 34.5099 84.2342 34.1473C84.2796 34.0113 84.3816 33.9433 84.5402 33.9433C84.6309 33.9433 84.6762 34.0453 84.6762 34.2493C84.6762 34.4306 84.5402 34.8159 84.2682 35.4053C83.9962 35.9493 83.7129 36.4706 83.4182 36.9693C83.1462 37.4453 82.8742 37.8646 82.6022 38.2273C82.2169 38.7259 81.7409 39.2133 81.1742 39.6893C80.6302 40.1653 79.9956 40.4033 79.2702 40.4033ZM78.5902 32.8893C79.3836 32.4586 80.0862 31.9486 80.6982 31.3593C81.3329 30.7473 81.6502 30.0899 81.6502 29.3873C81.6502 29.1379 81.4576 28.8886 81.0722 28.6393C80.7096 28.3673 80.2789 28.1406 79.7802 27.9593C79.5082 28.6846 79.2702 29.4553 79.0662 30.2713C78.8849 31.0873 78.7262 31.9599 78.5902 32.8893Z" fill="white"/>
</svg>
