<svg width="21" height="21" viewBox="0 0 21 21" fill="none" xmlns="http://www.w3.org/2000/svg">
<g opacity="0.8" clip-path="url(#clip0_123_3153)">
<path d="M17.85 0H3.15C1.4103 0 0 1.4103 0 3.15V17.85C0 19.5897 1.4103 21 3.15 21H17.85C19.5897 21 21 19.5897 21 17.85V3.15C21 1.4103 19.5897 0 17.85 0Z" fill="#37AEE2"/>
<path d="M8.16211 16.5703C7.71094 16.5703 7.75195 16.4062 7.62891 15.9961L6.31641 11.6895L16.3652 5.7832" fill="#C8DAEA"/>
<path d="M8.16406 16.5703C8.45117 16.5703 8.61523 16.4062 8.82031 16.2422L10.666 14.4785L8.36914 13.084" fill="#A9C9DD"/>
<path d="M8.36539 13.0847L13.9025 17.1452C14.4767 17.5144 14.9689 17.3093 15.133 16.571L17.3888 5.98898C17.5939 5.08664 17.0197 4.67648 16.4045 4.96359L3.23844 10.0495C2.37711 10.3777 2.37711 10.9109 3.07438 11.1159L6.47867 12.1823L14.2716 7.21945C14.6408 7.01437 14.9689 7.0964 14.7228 7.38351" fill="#F6FBFE"/>
</g>
<defs>
<clipPath id="clip0_123_3153">
<rect width="21" height="21" fill="white"/>
</clipPath>
</defs>
</svg>
