<svg width="21" height="21" viewBox="0 0 21 21" fill="none" xmlns="http://www.w3.org/2000/svg">
<g opacity="0.8" clip-path="url(#clip0_123_3149)">
<path d="M17.325 0H3.675C1.64535 0 0 1.64535 0 3.675V17.325C0 19.3546 1.64535 21 3.675 21H17.325C19.3546 21 21 19.3546 21 17.325V3.675C21 1.64535 19.3546 0 17.325 0Z" fill="#4489C8"/>
<path d="M3.15689 6.48783H5.67689C5.72957 6.48774 5.78103 6.50371 5.82441 6.53361C5.86779 6.56351 5.90103 6.60591 5.9197 6.65517C6.19861 7.37377 7.35689 10.1858 8.41673 10.4155C9.20423 10.4155 8.92533 6.67486 7.92455 6.67486C7.66205 6.67486 8.39048 6.20892 8.4397 6.18924C9.36974 5.93432 10.3512 5.93432 11.2813 6.18924C11.7833 6.39924 11.8686 6.98658 11.8817 7.48533C11.8949 7.98408 11.3239 10.1103 12.0753 10.34C13.0597 10.6419 14.3263 7.55424 14.6216 6.79627C14.6408 6.74762 14.6742 6.70591 14.7176 6.67663C14.7609 6.64735 14.8121 6.63186 14.8644 6.63221H17.6699C17.7132 6.63207 17.7559 6.64267 17.7942 6.66307C17.8324 6.68347 17.865 6.71302 17.8891 6.7491C17.9131 6.78517 17.9279 6.82664 17.932 6.86979C17.9361 6.91295 17.9295 6.95646 17.9127 6.99642C17.3348 8.31474 16.642 9.57963 15.8422 10.7764C15.7742 10.8752 15.7423 10.9944 15.7519 11.1139C15.7614 11.2334 15.8119 11.346 15.8947 11.4327C16.7347 12.3317 19.0316 14.878 17.7191 14.878H14.8874C14.8142 14.8782 14.7418 14.8628 14.675 14.8328C14.6083 14.8028 14.5487 14.7589 14.5002 14.7041C14.0605 14.2185 12.7808 12.8666 12.2033 12.9749C11.7242 13.0635 11.6783 13.8772 11.7013 14.4088C11.7085 14.5459 11.6617 14.6804 11.5709 14.7835C11.4802 14.8865 11.3526 14.9499 11.2156 14.96C10.7136 14.9895 10.0278 15.0027 9.96548 14.9994C7.96392 14.8714 6.77939 13.536 5.64736 12.0463C4.46156 10.4669 3.53655 8.70774 2.90751 6.83564C2.89466 6.79603 2.89129 6.75395 2.89768 6.7128C2.90407 6.67164 2.92005 6.63257 2.94431 6.59872C2.96858 6.56488 3.00046 6.53721 3.03739 6.51794C3.07431 6.49868 3.11525 6.48837 3.15689 6.48783Z" fill="white"/>
</g>
<defs>
<clipPath id="clip0_123_3149">
<rect width="21" height="21" fill="white"/>
</clipPath>
</defs>
</svg>
