<svg width="20" height="20" viewBox="0 0 20 20" fill="none" xmlns="http://www.w3.org/2000/svg">
<path d="M13.3558 0H5.91016C5.36315 0 4.83854 0.217299 4.45175 0.604092C4.06495 0.990886 3.84766 1.51549 3.84766 2.0625V8.64875C3.84766 9.19576 4.06495 9.72036 4.45175 10.1072C4.83854 10.494 5.36315 10.7113 5.91016 10.7113H6.67672L9.37172 13.8841C9.41715 13.9371 9.47767 13.9751 9.54523 13.9929C9.61278 14.0107 9.68415 14.0075 9.74984 13.9838C9.8165 13.9601 9.87415 13.9163 9.9148 13.8584C9.95545 13.8005 9.97709 13.7314 9.97672 13.6606V10.7113H13.3558C13.9028 10.7113 14.4274 10.494 14.8142 10.1072C15.201 9.72036 15.4183 9.19576 15.4183 8.64875V2.0625C15.4183 1.51549 15.201 0.990886 14.8142 0.604092C14.4274 0.217299 13.9028 0 13.3558 0ZM14.7308 8.64875C14.7308 9.01342 14.5859 9.36316 14.3281 9.62102C14.0702 9.87888 13.7205 10.0238 13.3558 10.0238H9.63297C9.5418 10.0238 9.45437 10.06 9.3899 10.1244C9.32543 10.1889 9.28922 10.2763 9.28922 10.3675V12.7256L7.09609 10.1441C7.06366 10.1065 7.02356 10.0764 6.9785 10.0556C6.93344 10.0349 6.88445 10.024 6.83484 10.0238H5.91016C5.54548 10.0238 5.19575 9.87888 4.93788 9.62102C4.68002 9.36316 4.53516 9.01342 4.53516 8.64875V2.0625C4.53516 1.69783 4.68002 1.34809 4.93788 1.09023C5.19575 0.832366 5.54548 0.6875 5.91016 0.6875H13.3558C13.7205 0.6875 14.0702 0.832366 14.3281 1.09023C14.5859 1.34809 14.7308 1.69783 14.7308 2.0625V8.64875Z" fill="#1F1F1F"/>
<path d="M13.985 2.49219C13.985 2.58336 13.9488 2.67079 13.8843 2.73526C13.8199 2.79972 13.7324 2.83594 13.6412 2.83594H5.625C5.53383 2.83594 5.4464 2.79972 5.38193 2.73526C5.31747 2.67079 5.28125 2.58336 5.28125 2.49219C5.28125 2.40102 5.31747 2.31359 5.38193 2.24912C5.4464 2.18465 5.53383 2.14844 5.625 2.14844H13.6412C13.7324 2.14844 13.8199 2.18465 13.8843 2.24912C13.9488 2.31359 13.985 2.40102 13.985 2.49219Z" fill="#1F1F1F"/>
<path d="M13.985 3.9258C13.985 4.01697 13.9488 4.1044 13.8843 4.16887C13.8199 4.23333 13.7324 4.26955 13.6412 4.26955H5.625C5.53383 4.26955 5.4464 4.23333 5.38193 4.16887C5.31747 4.1044 5.28125 4.01697 5.28125 3.9258C5.28125 3.83463 5.31747 3.7472 5.38193 3.68273C5.4464 3.61827 5.53383 3.58205 5.625 3.58205H13.6412C13.6865 3.58159 13.7314 3.59017 13.7733 3.60728C13.8153 3.62439 13.8533 3.64969 13.8853 3.68171C13.9174 3.71372 13.9427 3.7518 13.9598 3.79371C13.9769 3.83562 13.9855 3.88053 13.985 3.9258Z" fill="#1F1F1F"/>
<path d="M13.985 5.35547C13.985 5.44664 13.9488 5.53407 13.8843 5.59854C13.8199 5.663 13.7324 5.69922 13.6412 5.69922H5.625C5.53383 5.69922 5.4464 5.663 5.38193 5.59854C5.31747 5.53407 5.28125 5.44664 5.28125 5.35547C5.28125 5.2643 5.31747 5.17687 5.38193 5.1124C5.4464 5.04793 5.53383 5.01172 5.625 5.01172H13.6412C13.7324 5.01172 13.8199 5.04793 13.8843 5.1124C13.9488 5.17687 13.985 5.2643 13.985 5.35547Z" fill="#1F1F1F"/>
<path d="M13.9848 6.78908C13.9848 6.88025 13.9486 6.96768 13.8842 7.03215C13.8197 7.09661 13.7323 7.13283 13.6411 7.13283H8.48828C8.39711 7.13283 8.30968 7.09661 8.24521 7.03215C8.18075 6.96768 8.14453 6.88025 8.14453 6.78908C8.14453 6.69791 8.18075 6.61048 8.24521 6.54601C8.30968 6.48155 8.39711 6.44533 8.48828 6.44533H13.6411C13.6864 6.44487 13.7313 6.45345 13.7732 6.47056C13.8151 6.48767 13.8532 6.51298 13.8852 6.54499C13.9172 6.577 13.9425 6.61508 13.9596 6.65699C13.9767 6.6989 13.9853 6.74381 13.9848 6.78908Z" fill="#1F1F1F"/>
<path d="M13.9848 8.21875C13.9848 8.30992 13.9486 8.39735 13.8842 8.46182C13.8197 8.52628 13.7323 8.5625 13.6411 8.5625H8.48828C8.39711 8.5625 8.30968 8.52628 8.24521 8.46182C8.18075 8.39735 8.14453 8.30992 8.14453 8.21875C8.14453 8.12758 8.18075 8.04015 8.24521 7.97568C8.30968 7.91122 8.39711 7.875 8.48828 7.875H13.6411C13.7323 7.875 13.8197 7.91122 13.8842 7.97568C13.9486 8.04015 13.9848 8.12758 13.9848 8.21875Z" fill="#1F1F1F"/>
<path d="M5.04404 14.7972C5.02116 14.7285 4.97738 14.6687 4.91881 14.6262C4.86025 14.5837 4.78986 14.5605 4.71748 14.56H3.29779L2.85779 13.2091C2.83519 13.1403 2.79145 13.0804 2.73281 13.038C2.67417 12.9955 2.60362 12.9727 2.53123 12.9727C2.45884 12.9727 2.38829 12.9955 2.32965 13.038C2.27101 13.0804 2.22727 13.1403 2.20467 13.2091L1.76467 14.56H0.34498C0.272233 14.5597 0.201279 14.5826 0.142329 14.6252C0.0833781 14.6678 0.0394707 14.7281 0.016925 14.7972C-0.00562066 14.8664 -0.00564217 14.9409 0.0168636 15.0101C0.0393693 15.0793 0.0832418 15.1395 0.142168 15.1822L1.29029 16.0175L0.85373 17.365C0.836911 17.4166 0.83254 17.4714 0.840977 17.525C0.849413 17.5786 0.870416 17.6295 0.902268 17.6734C0.93412 17.7173 0.975916 17.7531 1.02424 17.7777C1.07256 17.8024 1.12604 17.8153 1.18029 17.8153C1.25307 17.8153 1.32402 17.7925 1.38311 17.75L2.53123 16.9147L3.67936 17.75C3.73789 17.7923 3.80828 17.8151 3.88052 17.8152C3.95275 17.8153 4.02317 17.7926 4.08177 17.7503C4.14038 17.7081 4.18418 17.6484 4.20697 17.5799C4.22976 17.5114 4.23038 17.4374 4.20873 17.3684L3.76873 16.0175L4.92029 15.1822C4.97847 15.1389 5.02167 15.0786 5.04386 15.0095C5.06605 14.9405 5.06611 14.8663 5.04404 14.7972ZM3.03998 15.99L3.22904 16.5744L2.73404 16.2134C2.67539 16.1699 2.60428 16.1464 2.53123 16.1464C2.45818 16.1464 2.38708 16.1699 2.32842 16.2134L1.83342 16.5744L2.02248 15.99C2.04482 15.9215 2.04488 15.8477 2.02264 15.7791C2.00041 15.7106 1.95703 15.6508 1.89873 15.6084L1.40373 15.2475H2.01561C2.08798 15.247 2.15838 15.2238 2.21694 15.1813C2.2755 15.1388 2.31929 15.079 2.34217 15.0103L2.53123 14.4259L2.72029 15.0103C2.74276 15.0792 2.78645 15.1393 2.8451 15.1819C2.90375 15.2245 2.97437 15.2475 3.04686 15.2475H3.65873L3.16373 15.6084C3.1048 15.6503 3.06093 15.71 3.03863 15.7787C3.01634 15.8475 3.01681 15.9216 3.03998 15.99Z" fill="#1F1F1F"/>
<path d="M12.1461 16.5726C12.1236 16.5037 12.0799 16.4436 12.0213 16.401C11.9626 16.3584 11.892 16.3355 11.8195 16.3354H10.3998L9.95984 14.9845C9.93724 14.9157 9.8935 14.8558 9.83486 14.8134C9.77622 14.7709 9.70567 14.748 9.63328 14.748C9.56089 14.748 9.49034 14.7709 9.4317 14.8134C9.37306 14.8558 9.32932 14.9157 9.30672 14.9845L8.86672 16.3354H7.44703C7.37428 16.3351 7.30333 16.358 7.24438 16.4006C7.18543 16.4432 7.14152 16.5034 7.11898 16.5726C7.09643 16.6418 7.09641 16.7163 7.11891 16.7855C7.14142 16.8547 7.18529 16.9149 7.24422 16.9576L8.39578 17.7929L7.95578 19.1438C7.93371 19.2129 7.93378 19.2871 7.95597 19.3562C7.97815 19.4252 8.02135 19.4856 8.07953 19.5288C8.13885 19.5708 8.2097 19.5933 8.28234 19.5933C8.35499 19.5933 8.42584 19.5708 8.48516 19.5288L9.63328 18.6935L10.7814 19.5288C10.8405 19.5713 10.9114 19.5942 10.9842 19.5942C11.057 19.5942 11.1279 19.5713 11.187 19.5288C11.2452 19.4856 11.2884 19.4252 11.3106 19.3562C11.3328 19.2871 11.3328 19.2129 11.3108 19.1438L10.8708 17.7929L12.0223 16.9576C12.081 16.9147 12.1246 16.8544 12.1468 16.7852C12.1691 16.716 12.1688 16.6416 12.1461 16.5726ZM10.142 17.7688L10.3311 18.3498L9.83609 17.9888C9.777 17.9464 9.70606 17.9235 9.63328 17.9235C9.56051 17.9235 9.48957 17.9464 9.43047 17.9888L8.93547 18.3498L9.12453 17.7688C9.14768 17.6999 9.14815 17.6253 9.12589 17.556C9.10362 17.4867 9.05978 17.4264 9.00078 17.3838L8.50578 17.0229H9.11766C9.19015 17.0228 9.26076 16.9999 9.31941 16.9573C9.37806 16.9147 9.42175 16.8546 9.44422 16.7857L9.63328 16.2048L9.82234 16.7857C9.84482 16.8546 9.8885 16.9147 9.94715 16.9573C10.0058 16.9999 10.0764 17.0228 10.1489 17.0229H10.7608L10.2658 17.3838C10.2068 17.4264 10.1629 17.4867 10.1407 17.556C10.1184 17.6253 10.1189 17.6999 10.142 17.7688Z" fill="#1F1F1F"/>
<path d="M19.2477 14.7972C19.2256 14.728 19.182 14.6677 19.1233 14.625C19.0645 14.5824 18.9937 14.5596 18.9211 14.56H17.5014L17.0614 13.2091C17.0388 13.1403 16.9951 13.0804 16.9364 13.038C16.8778 12.9955 16.8072 12.9727 16.7348 12.9727C16.6625 12.9727 16.5919 12.9955 16.5333 13.038C16.4746 13.0804 16.4309 13.1403 16.4083 13.2091L15.9683 14.56H14.5486C14.4758 14.5597 14.4049 14.5826 14.3459 14.6252C14.287 14.6678 14.2431 14.7281 14.2205 14.7972C14.198 14.8664 14.198 14.9409 14.2205 15.0101C14.243 15.0793 14.2869 15.1395 14.3458 15.1822L15.4973 16.0175L15.0573 17.3684C15.0357 17.4374 15.0363 17.5114 15.0591 17.5799C15.0819 17.6484 15.1257 17.7081 15.1843 17.7503C15.2429 17.7926 15.3133 17.8153 15.3856 17.8152C15.4578 17.8151 15.5282 17.7923 15.5867 17.75L16.7348 16.9147L17.883 17.75C17.9421 17.7925 18.013 17.8153 18.0858 17.8153C18.1587 17.8164 18.23 17.7934 18.2886 17.75C18.3478 17.7076 18.3918 17.6473 18.4141 17.578C18.4364 17.5086 18.4358 17.434 18.4123 17.365L17.9758 16.0175L19.1239 15.1822C19.1826 15.1393 19.2262 15.079 19.2484 15.0098C19.2706 14.9406 19.2704 14.8662 19.2477 14.7972ZM17.2436 15.99L17.4327 16.5744L16.9377 16.2134C16.8788 16.1705 16.8077 16.1476 16.7348 16.1481C16.6621 16.1481 16.5911 16.171 16.532 16.2134L16.037 16.5744L16.2261 15.99C16.2493 15.9216 16.2497 15.8475 16.2274 15.7787C16.2051 15.71 16.1613 15.6503 16.1023 15.6084L15.6073 15.2475H16.2192C16.2917 15.2475 16.3623 15.2245 16.421 15.1819C16.4796 15.1393 16.5233 15.0792 16.5458 15.0103L16.7348 14.4259L16.9239 15.0103C16.9468 15.079 16.9906 15.1388 17.0491 15.1813C17.1077 15.2238 17.1781 15.247 17.2505 15.2475H17.8623L17.3673 15.6084C17.309 15.6508 17.2657 15.7106 17.2434 15.7791C17.2212 15.8477 17.2213 15.9215 17.2436 15.99Z" fill="#1F1F1F"/>
</svg>
