<svg width="21" height="21" viewBox="0 0 21 21" fill="none" xmlns="http://www.w3.org/2000/svg">
<g opacity="0.8" clip-path="url(#clip0_123_3158)">
<path d="M17.841 0.6875H3.16134C1.81222 0.6875 0.714844 1.78799 0.714844 3.14073V17.86C0.714844 19.2129 1.81226 20.3134 3.16134 20.3134H17.841C19.1903 20.3134 20.2877 19.2129 20.2877 17.86V3.14077C20.2878 1.78799 19.1904 0.6875 17.841 0.6875Z" fill="#1B80E4"/>
<path d="M17.2294 10.5003H14.1711V8.04707C14.1711 7.3699 14.7192 7.43384 15.3943 7.43384H16.6178V4.36719H14.1711C12.1441 4.36719 10.5013 6.01446 10.5013 8.04707V10.5003H8.05469V13.5669H10.5013V20.3133H14.1711V13.5669H16.006L17.2294 10.5003Z" fill="#FCFCFC"/>
</g>
<defs>
<clipPath id="clip0_123_3158">
<rect width="21" height="21" fill="white"/>
</clipPath>
</defs>
</svg>
