<svg width="36" height="32" viewBox="0 0 36 32" fill="none" xmlns="http://www.w3.org/2000/svg">
<g opacity="0.8">
<path d="M1 4.80664H7.91437" stroke="black" stroke-miterlimit="10" stroke-linecap="round"/>
<path d="M20.2461 4.80664H34.9999" stroke="black" stroke-miterlimit="10" stroke-linecap="round"/>
<path d="M14.0677 8.61403C16.1653 8.61403 17.8658 6.90957 17.8658 4.80701C17.8658 2.70446 16.1653 1 14.0677 1C11.97 1 10.2695 2.70446 10.2695 4.80701C10.2695 6.90957 11.97 8.61403 14.0677 8.61403Z" stroke="black" stroke-miterlimit="10" stroke-linecap="round"/>
<path d="M35.0003 15.9492H28.0859" stroke="black" stroke-miterlimit="10" stroke-linecap="round"/>
<path d="M15.7538 15.9492H1" stroke="black" stroke-miterlimit="10" stroke-linecap="round"/>
<path d="M21.9329 19.7566C24.0306 19.7566 25.731 18.0521 25.731 15.9496C25.731 13.847 24.0306 12.1426 21.9329 12.1426C19.8353 12.1426 18.1348 13.847 18.1348 15.9496C18.1348 18.0521 19.8353 19.7566 21.9329 19.7566Z" stroke="black" stroke-miterlimit="10" stroke-linecap="round"/>
<path d="M35.0001 27.1934H23.2305" stroke="black" stroke-miterlimit="10" stroke-linecap="round"/>
<path d="M10.8985 27.1934H1" stroke="black" stroke-miterlimit="10" stroke-linecap="round"/>
<path d="M17.0774 31.0007C19.1751 31.0007 20.8756 29.2963 20.8756 27.1937C20.8756 25.0912 19.1751 23.3867 17.0774 23.3867C14.9798 23.3867 13.2793 25.0912 13.2793 27.1937C13.2793 29.2963 14.9798 31.0007 17.0774 31.0007Z" stroke="black" stroke-miterlimit="10" stroke-linecap="round"/>
</g>
</svg>
