<svg width="21" height="21" viewBox="0 0 21 21" fill="none" xmlns="http://www.w3.org/2000/svg">
<path d="M3.675 21L17.325 21C19.3546 21 21 19.3546 21 17.325L21 3.675C21 1.64535 19.3546 0 17.325 0L3.675 0C1.64535 0 0 1.64535 0 3.675L0 17.325C0 19.3546 1.64535 21 3.675 21Z" fill="url(#paint0_radial_123_3144)"/>
<path d="M14.4375 18.375H6.5625C5.51821 18.375 4.51669 17.9602 3.77827 17.2217C3.03984 16.4833 2.625 15.4818 2.625 14.4375V6.5625C2.625 5.51821 3.03984 4.51669 3.77827 3.77827C4.51669 3.03984 5.51821 2.625 6.5625 2.625H14.4375C15.4818 2.625 16.4833 3.03984 17.2217 3.77827C17.9602 4.51669 18.375 5.51821 18.375 6.5625V14.4375C18.375 15.4818 17.9602 16.4833 17.2217 17.2217C16.4833 17.9602 15.4818 18.375 14.4375 18.375ZM6.5625 4.2C5.93619 4.20087 5.33579 4.45005 4.89292 4.89292C4.45005 5.33579 4.20087 5.93619 4.2 6.5625V14.4375C4.20087 15.0638 4.45005 15.6642 4.89292 16.1071C5.33579 16.5499 5.93619 16.7991 6.5625 16.8H14.4375C15.0638 16.7991 15.6642 16.5499 16.1071 16.1071C16.5499 15.6642 16.7991 15.0638 16.8 14.4375V6.5625C16.7991 5.93619 16.5499 5.33579 16.1071 4.89292C15.6642 4.45005 15.0638 4.20087 14.4375 4.2H6.5625Z" fill="white"/>
<path d="M10.5016 14.9621C9.61897 14.9621 8.75619 14.7004 8.02233 14.21C7.28848 13.7197 6.71651 13.0228 6.37875 12.2073C6.041 11.3919 5.95262 10.4947 6.12481 9.62902C6.297 8.76338 6.72201 7.96824 7.3461 7.34415C7.97019 6.72006 8.76533 6.29504 9.63097 6.12286C10.4966 5.95067 11.3939 6.03904 12.2093 6.3768C13.0247 6.71456 13.7217 7.28652 14.212 8.02038C14.7023 8.75423 14.9641 9.61701 14.9641 10.4996C14.9632 11.6829 14.4928 12.8174 13.6561 13.6541C12.8194 14.4908 11.6848 14.9612 10.5016 14.9621ZM10.5016 7.61211C9.93047 7.61211 9.3722 7.78146 8.89736 8.09874C8.42251 8.41603 8.05241 8.86699 7.83386 9.39461C7.61531 9.92223 7.55813 10.5028 7.66955 11.0629C7.78096 11.6231 8.05597 12.1376 8.45979 12.5414C8.86362 12.9452 9.37812 13.2202 9.93824 13.3316C10.4984 13.443 11.0789 13.3859 11.6066 13.1673C12.1342 12.9488 12.5852 12.5787 12.9024 12.1038C13.2197 11.629 13.3891 11.0707 13.3891 10.4996C13.3882 9.73407 13.0837 9.00012 12.5424 8.4588C12.0011 7.91748 11.2671 7.61298 10.5016 7.61211Z" fill="white"/>
<path d="M14.9633 7.08672C15.3982 7.08672 15.7508 6.73414 15.7508 6.29922C15.7508 5.8643 15.3982 5.51172 14.9633 5.51172C14.5284 5.51172 14.1758 5.8643 14.1758 6.29922C14.1758 6.73414 14.5284 7.08672 14.9633 7.08672Z" fill="white"/>
<defs>
<radialGradient id="paint0_radial_123_3144" cx="0" cy="0" r="1" gradientUnits="userSpaceOnUse" gradientTransform="translate(-0.42246 20.5734) rotate(180) scale(48.4952)">
<stop stop-color="#F9ED32"/>
<stop offset="0.36" stop-color="#EE2A7B"/>
<stop offset="0.44" stop-color="#D22A8A"/>
<stop offset="0.6" stop-color="#8B2AB2"/>
<stop offset="0.83" stop-color="#1B2AF0"/>
<stop offset="0.88" stop-color="#002AFF"/>
</radialGradient>
</defs>
</svg>
