<svg width="20" height="20" viewBox="0 0 20 20" fill="none" xmlns="http://www.w3.org/2000/svg">
<g clip-path="url(#clip0_2049_410)">
<path d="M18.066 18.2893L16.7403 19.6149C16.5035 19.8505 15.8102 19.9995 15.7894 19.9995C11.5928 20.0348 7.55238 18.387 4.58313 15.417C1.60536 12.4398 -0.0443649 8.38354 0.00141631 4.17468C0.00141631 4.17222 0.153408 3.49843 0.389619 3.26406L1.71528 1.93718C2.20172 1.45136 3.13305 1.23164 3.78551 1.4489L4.06504 1.54289C4.7175 1.76015 5.39922 2.48035 5.57988 3.14316L6.24758 5.59304C6.42883 6.2571 6.18531 7.20186 5.69949 7.68768L4.81328 8.57389C5.68242 11.7953 8.20855 14.3208 11.4281 15.1911L12.3143 14.3049C12.8001 13.819 13.7474 13.5761 14.4114 13.7568L16.8613 14.4258C17.5229 14.6052 18.2431 15.2863 18.4617 15.9393L18.5544 16.2189C18.7715 16.8721 18.5519 17.8034 18.066 18.2893ZM11.2498 9.99971H12.4998C12.4998 8.61912 11.3805 7.49979 9.99988 7.49979V8.74975C10.6889 8.74975 11.2498 9.31123 11.2498 9.99971ZM16.2497 9.99971C16.2497 6.54764 13.4519 3.74988 9.99988 3.74988V4.99987C12.7573 4.99987 14.9997 7.24346 14.9997 9.99971H16.2497ZM9.99988 0V1.24996C14.8239 1.24996 18.7496 5.17561 18.7496 9.99971H19.9995C19.9995 4.47741 15.5222 0 9.99988 0Z" fill="black"/>
</g>
<defs>
<clipPath id="clip0_2049_410">
<rect width="20" height="20" fill="white"/>
</clipPath>
</defs>
</svg>
