<svg width="23" height="21" viewBox="0 0 23 21" fill="none" xmlns="http://www.w3.org/2000/svg">
<path d="M22.8546 8.74404L19.6008 6.64599C19.5414 6.60759 19.4703 6.58714 19.3975 6.58751H3.02091C3.03746 6.53784 3.04104 6.48532 3.03135 6.43415C3.02166 6.38299 2.99898 6.33462 2.96512 6.2929C2.93127 6.25119 2.88718 6.2173 2.83639 6.19394C2.7856 6.17059 2.72952 6.15843 2.67266 6.15843C2.61579 6.15843 2.55972 6.17059 2.50893 6.19394C2.45814 6.2173 2.41405 6.25119 2.38019 6.2929C2.34633 6.33462 2.32365 6.38299 2.31396 6.43415C2.30428 6.48532 2.30785 6.53784 2.3244 6.58751H1.27812C0.939304 6.588 0.614523 6.7111 0.374946 6.92983C0.135369 7.14857 0.000537799 7.44509 0 7.75443L0 10.286C0.000538398 10.5953 0.135402 10.8917 0.375008 11.1103C0.614614 11.3289 0.939398 11.4518 1.27812 11.452H2.3244C2.30785 11.5017 2.30428 11.5542 2.31396 11.6054C2.32365 11.6565 2.34633 11.7049 2.38019 11.7466C2.41405 11.7883 2.45814 11.8222 2.50893 11.8456C2.55972 11.8689 2.61579 11.8811 2.67266 11.8811C2.72952 11.8811 2.7856 11.8689 2.83639 11.8456C2.88718 11.8222 2.93127 11.7883 2.96512 11.7466C2.99898 11.7049 3.02166 11.6565 3.03135 11.6054C3.04104 11.5542 3.03746 11.5017 3.02091 11.452H19.4005C19.4735 11.4523 19.5447 11.4315 19.6039 11.3926L22.8576 9.26206C22.9022 9.23213 22.9384 9.19299 22.9632 9.14785C22.9881 9.10272 23.0009 9.05285 23.0006 9.00234C23.0003 8.95183 22.9869 8.90209 22.9615 8.8572C22.9362 8.81231 22.8995 8.77354 22.8546 8.74404ZM2.3244 10.8161C1.80787 10.7688 0.711759 11.0361 0.697524 10.286V7.75443C0.71786 7.00248 1.80685 7.26891 2.3244 7.22435V10.8161ZM19.0457 10.8161H3.02091V9.34282L19.0457 9.33354V10.8161ZM19.0457 8.6967L3.02091 8.70691V7.22156H19.0457V8.6967ZM19.7422 10.5181V7.51956L22.0523 9.00491L19.7422 10.5181ZM2.3244 5.20799V0.318421C2.3244 0.234131 2.36101 0.15328 2.42619 0.0935909C2.49138 0.033902 2.57983 0.000245743 2.67215 0L20.3299 0C20.4223 0.000244922 20.5109 0.0338714 20.5762 0.0935339C20.6415 0.153196 20.6784 0.234046 20.6786 0.318421V5.6211C20.6786 5.70555 20.6419 5.78655 20.5765 5.84626C20.5111 5.90598 20.4224 5.93953 20.3299 5.93953C20.2374 5.93953 20.1487 5.90598 20.0833 5.84626C20.0179 5.78655 19.9811 5.70555 19.9811 5.6211V0.636842H3.02091V5.20799C3.01609 5.28935 2.9773 5.36592 2.91252 5.42196C2.84774 5.478 2.7619 5.50923 2.67266 5.50923C2.58342 5.50923 2.49757 5.478 2.43279 5.42196C2.36801 5.36592 2.32922 5.28935 2.3244 5.20799ZM18.0065 5.09659H14.8453C14.7562 5.09219 14.6723 5.05678 14.6109 4.99763C14.5495 4.93849 14.5153 4.86011 14.5153 4.77864C14.5153 4.69716 14.5495 4.61878 14.6109 4.55964C14.6723 4.50049 14.7562 4.46508 14.8453 4.46068H18.0116C18.1007 4.46563 18.1843 4.50159 18.2453 4.56115C18.3062 4.62071 18.3398 4.69933 18.3391 4.78084C18.3385 4.86234 18.3036 4.9405 18.2418 4.99925C18.1799 5.05799 18.0957 5.09283 18.0065 5.09659ZM4.99147 4.46068H12.5158C12.6049 4.46508 12.6888 4.50049 12.7501 4.55964C12.8115 4.61878 12.8457 4.69716 12.8457 4.77864C12.8457 4.86011 12.8115 4.93849 12.7501 4.99763C12.6888 5.05678 12.6049 5.09219 12.5158 5.09659H4.99147C4.90237 5.09174 4.81869 5.05589 4.75768 4.99641C4.69666 4.93694 4.66294 4.85837 4.66346 4.77688C4.66398 4.69538 4.6987 4.61718 4.76048 4.55836C4.82225 4.49953 4.90638 4.46458 4.99553 4.46068H4.99147ZM18.0065 2.97533H11.0648C10.9757 2.97093 10.8918 2.93552 10.8305 2.87637C10.7691 2.81723 10.7349 2.73885 10.7349 2.65738C10.7349 2.5759 10.7691 2.49752 10.8305 2.43838C10.8918 2.37923 10.9757 2.34382 11.0648 2.33942H18.0065C18.0956 2.34382 18.1795 2.37923 18.2409 2.43838C18.3022 2.49752 18.3364 2.5759 18.3364 2.65738C18.3364 2.73885 18.3022 2.81723 18.2409 2.87637C18.1795 2.93552 18.0956 2.97093 18.0065 2.97533ZM4.99553 2.33942H8.74447C8.83358 2.34382 8.91745 2.37923 8.97883 2.43838C9.0402 2.49752 9.07441 2.5759 9.07441 2.65738C9.07441 2.73885 9.0402 2.81723 8.97883 2.87637C8.91745 2.93552 8.83358 2.97093 8.74447 2.97533H4.99553C4.90643 2.97093 4.82255 2.93552 4.76118 2.87637C4.6998 2.81723 4.6656 2.73885 4.6656 2.65738C4.6656 2.5759 4.6998 2.49752 4.76118 2.43838C4.82255 2.37923 4.90643 2.34382 4.99553 2.33942ZM9.84465 15.0679H14.7538C14.8011 15.0656 14.8484 15.0721 14.8929 15.087C14.9374 15.1019 14.978 15.1249 15.0124 15.1547C15.0468 15.1845 15.0742 15.2203 15.093 15.26C15.1117 15.2998 15.1213 15.3426 15.1213 15.3859C15.1213 15.4291 15.1117 15.4719 15.093 15.5117C15.0742 15.5514 15.0468 15.5873 15.0124 15.617C14.978 15.6468 14.9374 15.6698 14.8929 15.6847C14.8484 15.6997 14.8011 15.7062 14.7538 15.7038H9.84465C9.79733 15.7062 9.74999 15.6997 9.70552 15.6847C9.66104 15.6698 9.62036 15.6468 9.58596 15.617C9.55156 15.5873 9.52417 15.5514 9.50544 15.5117C9.48672 15.4719 9.47706 15.4291 9.47706 15.3859C9.47706 15.3426 9.48672 15.2998 9.50544 15.26C9.52417 15.2203 9.55156 15.1845 9.58596 15.1547C9.62036 15.1249 9.66104 15.1019 9.70552 15.087C9.74999 15.0721 9.79733 15.0656 9.84465 15.0679ZM4.64779 15.3854C4.64779 15.3012 4.68443 15.2204 4.74964 15.1609C4.81486 15.1014 4.90331 15.0679 4.99553 15.0679H7.52431C7.57163 15.0656 7.61897 15.0721 7.66345 15.087C7.70792 15.1019 7.7486 15.1249 7.783 15.1547C7.8174 15.1845 7.8448 15.2203 7.86352 15.26C7.88225 15.2998 7.8919 15.3426 7.8919 15.3859C7.8919 15.4291 7.88225 15.4719 7.86352 15.5117C7.8448 15.5514 7.8174 15.5873 7.783 15.617C7.7486 15.6468 7.70792 15.6698 7.66345 15.6847C7.61897 15.6997 7.57163 15.7062 7.52431 15.7038H4.99553C4.90321 15.7036 4.81477 15.6699 4.74958 15.6102C4.68439 15.5505 4.64779 15.4697 4.64779 15.3854ZM13.3567 13.5826C13.2676 13.5782 13.1837 13.5427 13.1223 13.4836C13.0609 13.4244 13.0267 13.3461 13.0267 13.2646C13.0267 13.1831 13.0609 13.1047 13.1223 13.0456C13.1837 12.9865 13.2676 12.951 13.3567 12.9466H18.0065C18.0956 12.951 18.1795 12.9865 18.2409 13.0456C18.3022 13.1047 18.3364 13.1831 18.3364 13.2646C18.3364 13.3461 18.3022 13.4244 18.2409 13.4836C18.1795 13.5427 18.0956 13.5782 18.0065 13.5826H13.3567ZM11.0333 13.5826H4.99553C4.90643 13.5782 4.82255 13.5427 4.76118 13.4836C4.6998 13.4244 4.6656 13.3461 4.6656 13.2646C4.6656 13.1831 4.6998 13.1047 4.76118 13.0456C4.82255 12.9865 4.90643 12.951 4.99553 12.9466H11.0333C11.1224 12.951 11.2063 12.9865 11.2676 13.0456C11.329 13.1047 11.3632 13.1831 11.3632 13.2646C11.3632 13.3461 11.329 13.4244 11.2676 13.4836C11.2063 13.5427 11.1224 13.5782 11.0333 13.5826ZM20.6786 12.4091V17.7118C20.6784 17.7962 20.6415 17.877 20.5762 17.9367C20.5109 17.9964 20.4223 18.03 20.3299 18.0302H11.138L6.113 20.9499C6.05719 20.9826 5.99225 21 5.92591 21C5.83365 20.9993 5.74541 20.9655 5.68017 20.9059C5.61494 20.8464 5.57794 20.7658 5.57714 20.6816V18.0302H2.67215C2.57983 18.03 2.49138 17.9963 2.42619 17.9366C2.36101 17.877 2.3244 17.7961 2.3244 17.7118V12.8445C2.32922 12.7632 2.36801 12.6866 2.43279 12.6306C2.49757 12.5745 2.58342 12.5433 2.67266 12.5433C2.7619 12.5433 2.84774 12.5745 2.91252 12.6306C2.9773 12.6866 3.01609 12.7632 3.02091 12.8445V17.3934H5.92591C6.01823 17.3936 6.10668 17.4273 6.17186 17.487C6.23705 17.5467 6.27365 17.6275 6.27365 17.7118V20.1023L10.8492 17.4435C10.9055 17.4109 10.9707 17.3936 11.0374 17.3934H19.9852V12.4091C19.9852 12.3247 20.0219 12.2437 20.0873 12.184C20.1527 12.1243 20.2415 12.0907 20.334 12.0907C20.4264 12.0907 20.5152 12.1243 20.5806 12.184C20.646 12.2437 20.6827 12.3247 20.6827 12.4091H20.6786Z" fill="black"/>
</svg>
