<svg width="224" height="35" viewBox="0 0 224 35" fill="none" xmlns="http://www.w3.org/2000/svg">
<path d="M30.2663 12.8095C31.9979 13.0562 32.601 15.25 31.2388 16.3472L26.1248 20.4659C25.529 20.9458 25.2591 21.7234 25.4296 22.4692L27.0139 29.4004C27.4222 31.1862 25.4143 32.5355 23.915 31.4829L18.5617 27.7244C17.8721 27.2402 16.9529 27.2402 16.2633 27.7244L10.91 31.4829C9.41071 32.5355 7.40281 31.1861 7.81102 29.4003L9.39537 22.4692C9.56584 21.7234 9.29596 20.9458 8.70016 20.4659L3.58619 16.3472C2.22396 15.25 2.82703 13.0562 4.55864 12.8095L10.582 11.9515C11.2252 11.8599 11.7838 11.4615 12.08 10.8833L15.6324 3.94792C16.3756 2.49696 18.4494 2.49696 19.1926 3.94792L22.7449 10.8833C23.0411 11.4615 23.5997 11.8599 24.243 11.9515L30.2663 12.8095Z" fill="#FFE100"/>
<path d="M80.0915 12.8095C81.8231 13.0562 82.4262 15.25 81.064 16.3472L75.95 20.4659C75.3542 20.9458 75.0843 21.7234 75.2548 22.4692L76.8391 29.4004C77.2473 31.1862 75.2394 32.5355 73.7402 31.4829L68.3869 27.7244C67.6973 27.2402 66.7781 27.2402 66.0885 27.7244L60.7352 31.4829C59.2359 32.5355 57.228 31.1861 57.6362 29.4003L59.2206 22.4692C59.391 21.7234 59.1212 20.9458 58.5254 20.4659L53.4114 16.3472C52.0492 15.25 52.6522 13.0562 54.3838 12.8095L60.4072 11.9515C61.0504 11.8599 61.609 11.4615 61.9052 10.8833L65.4576 3.94792C66.2008 2.49696 68.2745 2.49696 69.0178 3.94792L72.5701 10.8833C72.8663 11.4615 73.4249 11.8599 74.0682 11.9515L80.0915 12.8095Z" fill="#FFE100"/>
<path d="M129.916 12.8095C131.648 13.0562 132.251 15.25 130.889 16.3472L125.775 20.4659C125.179 20.9458 124.909 21.7234 125.079 22.4692L126.664 29.4004C127.072 31.1862 125.064 32.5355 123.565 31.4829L118.212 27.7244C117.522 27.2402 116.603 27.2402 115.913 27.7244L110.56 31.4829C109.061 32.5355 107.053 31.1861 107.461 29.4003L109.045 22.4692C109.216 21.7234 108.946 20.9458 108.35 20.4659L103.236 16.3472C101.874 15.25 102.477 13.0562 104.209 12.8095L110.232 11.9515C110.875 11.8599 111.434 11.4615 111.73 10.8833L115.282 3.94792C116.026 2.49696 118.099 2.49696 118.842 3.94792L122.395 10.8833C122.691 11.4615 123.25 11.8599 123.893 11.9515L129.916 12.8095Z" fill="#FFE100"/>
<path d="M156.813 31.4105C156.247 31.3968 155.699 31.2148 155.242 30.8889C154.76 30.5506 154.403 30.0688 154.225 29.5159C154.046 28.9629 154.056 28.3684 154.252 27.8213L156.232 21.87C156.309 21.6352 156.308 21.3825 156.229 21.1482C156.15 20.9139 155.997 20.7102 155.792 20.5662L150.607 16.885C150.141 16.5519 149.793 16.0845 149.613 15.5484C149.433 15.0124 149.429 14.4347 149.602 13.8965C149.776 13.3583 150.118 12.8866 150.58 12.5478C151.042 12.209 151.601 12.02 152.179 12.0074H158.588C158.829 12.0128 159.067 11.9469 159.268 11.8182C159.47 11.6895 159.628 11.5042 159.72 11.2865L161.699 5.31992C161.867 4.76956 162.213 4.28757 162.687 3.94709C163.16 3.6066 163.735 3.42622 164.323 3.43331C164.906 3.42673 165.476 3.60364 165.949 3.93788C166.421 4.27211 166.771 4.74592 166.946 5.28925L168.926 11.2865C169.007 11.5173 169.159 11.7178 169.362 11.8606C169.564 12.0034 169.807 12.0815 170.057 12.0841H176.483C177.06 12.0967 177.62 12.2857 178.082 12.6245C178.544 12.9633 178.885 13.435 179.059 13.9732C179.232 14.5114 179.228 15.0891 179.048 15.6251C178.868 16.1612 178.52 16.6286 178.054 16.9617L172.869 20.6429C172.664 20.7869 172.511 20.9906 172.432 21.2249C172.353 21.4592 172.352 21.7119 172.429 21.9467L174.425 27.9133C174.617 28.4622 174.623 29.057 174.442 29.6096C174.261 30.1621 173.902 30.643 173.419 30.981C172.951 31.3257 172.38 31.5121 171.793 31.5121C171.206 31.5121 170.636 31.3257 170.167 30.981L164.983 27.2998C164.778 27.1585 164.534 27.0826 164.283 27.0826C164.033 27.0826 163.789 27.1585 163.584 27.2998L158.384 30.981C157.918 31.2787 157.37 31.4287 156.813 31.4105ZM152.163 13.5873C151.911 13.5803 151.663 13.6546 151.459 13.7988C151.254 13.943 151.104 14.149 151.032 14.3849C150.95 14.6179 150.947 14.8703 151.024 15.105C151.1 15.3397 151.252 15.5443 151.456 15.6886L156.656 19.3699C157.137 19.7094 157.494 20.1904 157.675 20.7424C157.856 21.2944 157.851 21.8884 157.662 22.4375L155.682 28.3428C155.598 28.5756 155.594 28.8288 155.67 29.0641C155.747 29.2993 155.9 29.5038 156.106 29.6465C156.307 29.797 156.552 29.8786 156.805 29.8786C157.058 29.8786 157.304 29.797 157.504 29.6465L162.752 25.9653C163.221 25.6289 163.788 25.4475 164.37 25.4475C164.952 25.4475 165.519 25.6289 165.988 25.9653L171.141 29.6926C171.342 29.8431 171.587 29.9246 171.84 29.9246C172.093 29.9246 172.339 29.8431 172.539 29.6926C172.746 29.5498 172.899 29.3453 172.975 29.1101C173.052 28.8748 173.048 28.6216 172.964 28.3888L170.984 22.4375C170.794 21.8884 170.79 21.2944 170.97 20.7424C171.151 20.1904 171.508 19.7094 171.989 19.3699L177.174 15.6886C177.374 15.5435 177.523 15.3409 177.599 15.1091C177.675 14.8773 177.675 14.6281 177.599 14.3964C177.523 14.1646 177.374 13.962 177.174 13.8169C176.974 13.6718 176.732 13.5915 176.483 13.5873H170.057C169.481 13.5803 168.921 13.3976 168.456 13.0649C167.992 12.7321 167.645 12.2659 167.465 11.7314L165.454 5.76474C165.381 5.52885 165.231 5.32286 165.027 5.17867C164.822 5.03448 164.575 4.96013 164.323 4.96714C164.071 4.96013 163.823 5.03448 163.619 5.17867C163.414 5.32286 163.264 5.52885 163.192 5.76474L161.181 11.7314C161.001 12.2659 160.654 12.7321 160.189 13.0649C159.724 13.3976 159.165 13.5803 158.588 13.5873H152.163Z" fill="#FFE100"/>
<path d="M201.524 31.4105C200.958 31.3968 200.41 31.2148 199.953 30.8889C199.471 30.5506 199.114 30.0688 198.935 29.5159C198.757 28.9629 198.767 28.3684 198.963 27.8213L200.943 21.87C201.02 21.6352 201.019 21.3825 200.94 21.1482C200.861 20.9139 200.708 20.7102 200.503 20.5662L195.318 16.885C194.852 16.5519 194.504 16.0845 194.324 15.5484C194.144 15.0124 194.14 14.4347 194.313 13.8965C194.487 13.3583 194.828 12.8866 195.291 12.5478C195.753 12.209 196.312 12.02 196.889 12.0074H203.299C203.54 12.0128 203.778 11.9469 203.979 11.8182C204.181 11.6895 204.339 11.5042 204.431 11.2865L206.41 5.31992C206.578 4.76956 206.924 4.28757 207.398 3.94709C207.871 3.6066 208.446 3.42622 209.034 3.43331C209.617 3.42673 210.187 3.60364 210.66 3.93788C211.132 4.27211 211.482 4.74592 211.657 5.28925L213.637 11.2865C213.718 11.5173 213.87 11.7178 214.073 11.8606C214.275 12.0034 214.518 12.0815 214.768 12.0841H221.194C221.771 12.0967 222.331 12.2857 222.793 12.6245C223.255 12.9633 223.596 13.435 223.77 13.9732C223.943 14.5114 223.939 15.0891 223.759 15.6251C223.579 16.1612 223.231 16.6286 222.765 16.9617L217.58 20.6429C217.375 20.7869 217.222 20.9906 217.143 21.2249C217.064 21.4592 217.063 21.7119 217.14 21.9467L219.136 27.9133C219.328 28.4622 219.334 29.057 219.153 29.6096C218.972 30.1621 218.613 30.643 218.13 30.981C217.662 31.3257 217.091 31.5121 216.504 31.5121C215.917 31.5121 215.347 31.3257 214.878 30.981L209.694 27.2998C209.489 27.1585 209.245 27.0826 208.994 27.0826C208.744 27.0826 208.5 27.1585 208.295 27.2998L203.095 30.981C202.629 31.2787 202.081 31.4287 201.524 31.4105ZM196.874 13.5873C196.622 13.5803 196.374 13.6546 196.17 13.7988C195.965 13.943 195.815 14.149 195.743 14.3849C195.661 14.6179 195.658 14.8703 195.735 15.105C195.811 15.3397 195.962 15.5443 196.167 15.6886L201.367 19.3699C201.848 19.7094 202.205 20.1904 202.386 20.7424C202.567 21.2944 202.562 21.8884 202.372 22.4375L200.393 28.3428C200.309 28.5756 200.305 28.8288 200.381 29.0641C200.458 29.2993 200.611 29.5038 200.817 29.6465C201.018 29.797 201.263 29.8786 201.516 29.8786C201.769 29.8786 202.015 29.797 202.215 29.6465L207.463 25.9653C207.932 25.6289 208.499 25.4475 209.081 25.4475C209.663 25.4475 210.23 25.6289 210.699 25.9653L215.852 29.6926C216.053 29.8431 216.298 29.9246 216.551 29.9246C216.804 29.9246 217.05 29.8431 217.25 29.6926C217.457 29.5498 217.61 29.3453 217.686 29.1101C217.763 28.8748 217.759 28.6216 217.674 28.3888L215.695 22.4375C215.505 21.8884 215.5 21.2944 215.681 20.7424C215.862 20.1904 216.219 19.7094 216.7 19.3699L221.885 15.6886C222.085 15.5435 222.234 15.3409 222.31 15.1091C222.386 14.8773 222.386 14.6281 222.31 14.3964C222.234 14.1646 222.085 13.962 221.885 13.8169C221.685 13.6718 221.443 13.5915 221.194 13.5873H214.768C214.192 13.5803 213.632 13.3976 213.167 13.0649C212.703 12.7321 212.356 12.2659 212.176 11.7314L210.165 5.76474C210.092 5.52885 209.942 5.32286 209.738 5.17867C209.533 5.03448 209.286 4.96013 209.034 4.96714C208.782 4.96013 208.534 5.03448 208.33 5.17867C208.125 5.32286 207.975 5.52885 207.903 5.76474L205.892 11.7314C205.712 12.2659 205.365 12.7321 204.9 13.0649C204.435 13.3976 203.876 13.5803 203.299 13.5873H196.874Z" fill="#FFE100"/>
</svg>
