<svg width="235" height="35" viewBox="0 0 235 35" fill="none" xmlns="http://www.w3.org/2000/svg">
<path d="M30.2663 12.8095C31.9979 13.0562 32.601 15.25 31.2388 16.3472L26.1248 20.4659C25.529 20.9458 25.2591 21.7234 25.4296 22.4692L27.0139 29.4004C27.4222 31.1862 25.4143 32.5355 23.915 31.4829L18.5617 27.7244C17.8721 27.2402 16.9529 27.2402 16.2633 27.7244L10.91 31.4829C9.41071 32.5355 7.40281 31.1861 7.81102 29.4003L9.39537 22.4692C9.56584 21.7234 9.29596 20.9458 8.70016 20.4659L3.58619 16.3472C2.22396 15.25 2.82703 13.0562 4.55864 12.8095L10.582 11.9515C11.2252 11.8599 11.7838 11.4615 12.08 10.8833L15.6324 3.94792C16.3756 2.49696 18.4494 2.49696 19.1926 3.94792L22.7449 10.8833C23.0411 11.4615 23.5997 11.8599 24.243 11.9515L30.2663 12.8095Z" fill="#FFE100"/>
<path d="M80.0915 12.8095C81.8231 13.0562 82.4262 15.25 81.064 16.3472L75.95 20.4659C75.3542 20.9458 75.0843 21.7234 75.2548 22.4692L76.8391 29.4004C77.2473 31.1862 75.2394 32.5355 73.7402 31.4829L68.3869 27.7244C67.6973 27.2402 66.7781 27.2402 66.0885 27.7244L60.7352 31.4829C59.2359 32.5355 57.228 31.1861 57.6362 29.4003L59.2206 22.4692C59.391 21.7234 59.1212 20.9458 58.5254 20.4659L53.4114 16.3472C52.0492 15.25 52.6522 13.0562 54.3838 12.8095L60.4072 11.9515C61.0504 11.8599 61.609 11.4615 61.9052 10.8833L65.4576 3.94792C66.2008 2.49696 68.2745 2.49696 69.0178 3.94792L72.5701 10.8833C72.8663 11.4615 73.4249 11.8599 74.0682 11.9515L80.0915 12.8095Z" fill="#FFE100"/>
<path d="M129.916 12.8095C131.648 13.0562 132.251 15.25 130.889 16.3472L125.775 20.4659C125.179 20.9458 124.909 21.7234 125.079 22.4692L126.664 29.4004C127.072 31.1862 125.064 32.5355 123.565 31.4829L118.212 27.7244C117.522 27.2402 116.603 27.2402 115.913 27.7244L110.56 31.4829C109.061 32.5355 107.053 31.1861 107.461 29.4003L109.045 22.4692C109.216 21.7234 108.946 20.9458 108.35 20.4659L103.236 16.3472C101.874 15.25 102.477 13.0562 104.209 12.8095L110.232 11.9515C110.875 11.8599 111.434 11.4615 111.73 10.8833L115.282 3.94792C116.026 2.49696 118.099 2.49696 118.842 3.94792L122.395 10.8833C122.691 11.4615 123.25 11.8599 123.893 11.9515L129.916 12.8095Z" fill="#FFE100"/>
<path d="M179.741 12.8095C181.473 13.0562 182.076 15.25 180.714 16.3472L175.6 20.4659C175.004 20.9458 174.734 21.7234 174.905 22.4692L176.489 29.4004C176.897 31.1862 174.889 32.5355 173.39 31.4829L168.037 27.7244C167.347 27.2402 166.428 27.2402 165.738 27.7244L160.385 31.4829C158.886 32.5355 156.878 31.1861 157.286 29.4003L158.87 22.4692C159.041 21.7234 158.771 20.9458 158.175 20.4659L153.061 16.3472C151.699 15.25 152.302 13.0562 154.034 12.8095L160.057 11.9515C160.7 11.8599 161.259 11.4615 161.555 10.8833L165.108 3.94792C165.851 2.49696 167.924 2.49696 168.668 3.94792L172.22 10.8833C172.516 11.4615 173.075 11.8599 173.718 11.9515L179.741 12.8095Z" fill="#FFE100"/>
<path d="M229.566 12.8095C231.298 13.0562 231.901 15.25 230.539 16.3472L225.425 20.4659C224.829 20.9458 224.559 21.7234 224.729 22.4692L226.314 29.4004C226.722 31.1862 224.714 32.5355 223.215 31.4829L217.862 27.7244C217.172 27.2402 216.253 27.2402 215.563 27.7244L210.21 31.4829C208.711 32.5355 206.703 31.1861 207.111 29.4003L208.695 22.4692C208.866 21.7234 208.596 20.9458 208 20.4659L202.886 16.3472C201.524 15.25 202.127 13.0562 203.858 12.8095L209.882 11.9515C210.525 11.8599 211.084 11.4615 211.38 10.8833L214.932 3.94792C215.675 2.49696 217.749 2.49696 218.492 3.94792L222.045 10.8833C222.341 11.4615 222.9 11.8599 223.543 11.9515L229.566 12.8095Z" fill="#FFE100"/>
</svg>
