<svg width="230" height="35" viewBox="0 0 230 35" fill="none" xmlns="http://www.w3.org/2000/svg">
<path d="M30.2663 12.8095C31.9979 13.0562 32.601 15.25 31.2388 16.3472L26.1248 20.4659C25.529 20.9458 25.2591 21.7234 25.4296 22.4692L27.0139 29.4004C27.4222 31.1862 25.4143 32.5355 23.915 31.4829L18.5617 27.7244C17.8721 27.2402 16.9529 27.2402 16.2633 27.7244L10.91 31.4829C9.41071 32.5355 7.40281 31.1861 7.81102 29.4003L9.39537 22.4692C9.56584 21.7234 9.29596 20.9458 8.70016 20.4659L3.58619 16.3472C2.22396 15.25 2.82703 13.0562 4.55864 12.8095L10.582 11.9515C11.2252 11.8599 11.7838 11.4615 12.08 10.8833L15.6324 3.94792C16.3756 2.49696 18.4494 2.49696 19.1926 3.94792L22.7449 10.8833C23.0411 11.4615 23.5997 11.8599 24.243 11.9515L30.2663 12.8095Z" fill="#FFE100"/>
<path d="M80.0915 12.8095C81.8231 13.0562 82.4262 15.25 81.064 16.3472L75.95 20.4659C75.3542 20.9458 75.0843 21.7234 75.2548 22.4692L76.8391 29.4004C77.2473 31.1862 75.2394 32.5355 73.7402 31.4829L68.3869 27.7244C67.6973 27.2402 66.7781 27.2402 66.0885 27.7244L60.7352 31.4829C59.2359 32.5355 57.228 31.1861 57.6362 29.4003L59.2206 22.4692C59.391 21.7234 59.1212 20.9458 58.5254 20.4659L53.4114 16.3472C52.0492 15.25 52.6522 13.0562 54.3838 12.8095L60.4072 11.9515C61.0504 11.8599 61.609 11.4615 61.9052 10.8833L65.4576 3.94792C66.2008 2.49696 68.2745 2.49696 69.0178 3.94792L72.5701 10.8833C72.8663 11.4615 73.4249 11.8599 74.0682 11.9515L80.0915 12.8095Z" fill="#FFE100"/>
<path d="M129.916 12.8095C131.648 13.0562 132.251 15.25 130.889 16.3472L125.775 20.4659C125.179 20.9458 124.909 21.7234 125.079 22.4692L126.664 29.4004C127.072 31.1862 125.064 32.5355 123.565 31.4829L118.212 27.7244C117.522 27.2402 116.603 27.2402 115.913 27.7244L110.56 31.4829C109.061 32.5355 107.053 31.1861 107.461 29.4003L109.045 22.4692C109.216 21.7234 108.946 20.9458 108.35 20.4659L103.236 16.3472C101.874 15.25 102.477 13.0562 104.209 12.8095L110.232 11.9515C110.875 11.8599 111.434 11.4615 111.73 10.8833L115.282 3.94792C116.026 2.49696 118.099 2.49696 118.842 3.94792L122.395 10.8833C122.691 11.4615 123.25 11.8599 123.893 11.9515L129.916 12.8095Z" fill="#FFE100"/>
<path d="M179.741 12.8095C181.473 13.0562 182.076 15.25 180.714 16.3472L175.6 20.4659C175.004 20.9458 174.734 21.7234 174.905 22.4692L176.489 29.4004C176.897 31.1862 174.889 32.5355 173.39 31.4829L168.037 27.7244C167.347 27.2402 166.428 27.2402 165.738 27.7244L160.385 31.4829C158.886 32.5355 156.878 31.1861 157.286 29.4003L158.87 22.4692C159.041 21.7234 158.771 20.9458 158.175 20.4659L153.061 16.3472C151.699 15.25 152.302 13.0562 154.034 12.8095L160.057 11.9515C160.7 11.8599 161.259 11.4615 161.555 10.8833L165.108 3.94792C165.851 2.49696 167.924 2.49696 168.668 3.94792L172.22 10.8833C172.516 11.4615 173.075 11.8599 173.718 11.9515L179.741 12.8095Z" fill="#FFE100"/>
<path d="M206.638 31.4105C206.072 31.3968 205.524 31.2148 205.067 30.8889C204.585 30.5506 204.228 30.0688 204.049 29.5159C203.871 28.9629 203.881 28.3684 204.077 27.8213L206.057 21.87C206.134 21.6352 206.133 21.3825 206.054 21.1482C205.975 20.9139 205.822 20.7102 205.617 20.5662L200.432 16.885C199.966 16.5519 199.618 16.0845 199.438 15.5484C199.258 15.0124 199.254 14.4347 199.427 13.8965C199.601 13.3583 199.942 12.8866 200.404 12.5478C200.866 12.209 201.426 12.02 202.003 12.0074H208.413C208.654 12.0128 208.891 11.9469 209.093 11.8182C209.295 11.6895 209.452 11.5042 209.544 11.2865L211.524 5.31992C211.691 4.76956 212.038 4.28757 212.512 3.94709C212.985 3.6066 213.559 3.42622 214.147 3.43331C214.731 3.42673 215.301 3.60364 215.774 3.93788C216.246 4.27211 216.596 4.74592 216.771 5.28925L218.751 11.2865C218.832 11.5173 218.984 11.7178 219.187 11.8606C219.389 12.0034 219.632 12.0815 219.882 12.0841H226.307C226.885 12.0967 227.444 12.2857 227.906 12.6245C228.368 12.9633 228.71 13.435 228.884 13.9732C229.057 14.5114 229.053 15.0891 228.873 15.6251C228.693 16.1612 228.345 16.6286 227.878 16.9617L222.694 20.6429C222.489 20.7869 222.336 20.9906 222.257 21.2249C222.178 21.4592 222.177 21.7119 222.254 21.9467L224.249 27.9133C224.442 28.4622 224.448 29.057 224.267 29.6096C224.085 30.1621 223.727 30.643 223.244 30.981C222.775 31.3257 222.205 31.5121 221.618 31.5121C221.031 31.5121 220.46 31.3257 219.992 30.981L214.807 27.2998C214.603 27.1585 214.359 27.0826 214.108 27.0826C213.858 27.0826 213.613 27.1585 213.409 27.2998L208.209 30.981C207.743 31.2787 207.194 31.4287 206.638 31.4105ZM201.988 13.5873C201.735 13.5803 201.488 13.6546 201.283 13.7988C201.079 13.943 200.929 14.149 200.856 14.3849C200.775 14.6179 200.772 14.8703 200.848 15.105C200.925 15.3397 201.076 15.5443 201.281 15.6886L206.481 19.3699C206.962 19.7094 207.319 20.1904 207.5 20.7424C207.681 21.2944 207.676 21.8884 207.486 22.4375L205.507 28.3428C205.423 28.5756 205.418 28.8288 205.495 29.0641C205.572 29.2993 205.725 29.5038 205.931 29.6465C206.131 29.797 206.377 29.8786 206.63 29.8786C206.883 29.8786 207.129 29.797 207.329 29.6465L212.576 25.9653C213.046 25.6289 213.612 25.4475 214.195 25.4475C214.777 25.4475 215.344 25.6289 215.813 25.9653L220.966 29.6926C221.166 29.8431 221.412 29.9246 221.665 29.9246C221.918 29.9246 222.164 29.8431 222.364 29.6926C222.57 29.5498 222.723 29.3453 222.8 29.1101C222.876 28.8748 222.872 28.6216 222.788 28.3888L220.809 22.4375C220.619 21.8884 220.614 21.2944 220.795 20.7424C220.976 20.1904 221.333 19.7094 221.814 19.3699L226.999 15.6886C227.199 15.5435 227.347 15.3409 227.424 15.1091C227.5 14.8773 227.5 14.6281 227.424 14.3964C227.347 14.1646 227.199 13.962 226.999 13.8169C226.798 13.6718 226.557 13.5915 226.307 13.5873H219.882C219.306 13.5803 218.746 13.3976 218.281 13.0649C217.816 12.7321 217.47 12.2659 217.29 11.7314L215.279 5.76474C215.206 5.52885 215.056 5.32286 214.852 5.17867C214.647 5.03448 214.4 4.96013 214.147 4.96714C213.895 4.96013 213.648 5.03448 213.443 5.17867C213.239 5.32286 213.089 5.52885 213.016 5.76474L211.005 11.7314C210.825 12.2659 210.479 12.7321 210.014 13.0649C209.549 13.3976 208.989 13.5803 208.413 13.5873H201.988Z" fill="#FFE100"/>
</svg>
