<svg width="214" height="35" viewBox="0 0 214 35" fill="none" xmlns="http://www.w3.org/2000/svg">
<path d="M30.2663 12.8095C31.9979 13.0562 32.601 15.25 31.2388 16.3472L26.1248 20.4659C25.529 20.9458 25.2591 21.7234 25.4296 22.4692L27.0139 29.4004C27.4222 31.1862 25.4143 32.5355 23.915 31.4829L18.5617 27.7244C17.8721 27.2402 16.9529 27.2402 16.2633 27.7244L10.91 31.4829C9.41071 32.5355 7.40281 31.1861 7.81102 29.4003L9.39537 22.4692C9.56584 21.7234 9.29596 20.9458 8.70016 20.4659L3.58619 16.3472C2.22396 15.25 2.82703 13.0562 4.55864 12.8095L10.582 11.9515C11.2252 11.8599 11.7838 11.4615 12.08 10.8833L15.6324 3.94792C16.3756 2.49696 18.4494 2.49696 19.1926 3.94792L22.7449 10.8833C23.0411 11.4615 23.5997 11.8599 24.243 11.9515L30.2663 12.8095Z" fill="#FFE100"/>
<path d="M57.1632 31.4105C56.5974 31.3968 56.0493 31.2148 55.5922 30.8889C55.11 30.5506 54.753 30.0688 54.5746 29.5159C54.3962 28.9629 54.406 28.3684 54.6024 27.8213L56.582 21.87C56.6593 21.6352 56.6584 21.3825 56.5794 21.1482C56.5004 20.9139 56.3472 20.7102 56.1421 20.5662L50.9576 16.885C50.4912 16.5519 50.1434 16.0845 49.9632 15.5484C49.7829 15.0124 49.7792 14.4347 49.9525 13.8965C50.1259 13.3583 50.4676 12.8866 50.9297 12.5478C51.3917 12.209 51.9509 12.02 52.5286 12.0074H58.9385C59.1796 12.0128 59.4167 11.9469 59.6186 11.8182C59.8205 11.6895 59.9777 11.5042 60.0697 11.2865L62.0492 5.31992C62.2167 4.76956 62.5635 4.28757 63.037 3.94709C63.5105 3.6066 64.0848 3.42622 64.6729 3.43331C65.2563 3.42673 65.8264 3.60364 66.2989 3.93788C66.7714 4.27211 67.1212 4.74592 67.2965 5.28925L69.276 11.2865C69.3572 11.5173 69.5094 11.7178 69.712 11.8606C69.9145 12.0034 70.1574 12.0815 70.4072 12.0841H76.8328C77.4105 12.0967 77.9697 12.2857 78.4318 12.6245C78.8938 12.9633 79.2355 13.435 79.4089 13.9732C79.5823 14.5114 79.5785 15.0891 79.3983 15.6251C79.218 16.1612 78.8702 16.6286 78.4039 16.9617L73.2194 20.6429C73.0142 20.7869 72.8611 20.9906 72.782 21.2249C72.703 21.4592 72.7021 21.7119 72.7795 21.9467L74.7747 27.9133C74.967 28.4622 74.973 29.057 74.7919 29.6096C74.6108 30.1621 74.2522 30.643 73.7693 30.981C73.3007 31.3257 72.7299 31.5121 72.1432 31.5121C71.5565 31.5121 70.9858 31.3257 70.5172 30.981L65.3327 27.2998C65.1283 27.1585 64.884 27.0826 64.6336 27.0826C64.3831 27.0826 64.1389 27.1585 63.9345 27.2998L58.7343 30.981C58.2684 31.2787 57.7197 31.4287 57.1632 31.4105ZM52.5129 13.5873C52.2608 13.5803 52.0133 13.6546 51.8088 13.7988C51.6043 13.943 51.4542 14.149 51.3818 14.3849C51.3002 14.6179 51.2975 14.8703 51.3738 15.105C51.4502 15.3397 51.6016 15.5443 51.806 15.6886L57.0061 19.3699C57.4872 19.7094 57.8442 20.1904 58.0252 20.7424C58.2061 21.2944 58.2013 21.8884 58.0116 22.4375L56.0321 28.3428C55.948 28.5756 55.9439 28.8288 56.0204 29.0641C56.0969 29.2993 56.25 29.5038 56.4563 29.6465C56.6567 29.797 56.9025 29.8786 57.1554 29.8786C57.4083 29.8786 57.654 29.797 57.8545 29.6465L63.1018 25.9653C63.571 25.6289 64.1379 25.4475 64.72 25.4475C65.3021 25.4475 65.869 25.6289 66.3382 25.9653L71.4912 29.6926C71.6917 29.8431 71.9375 29.9246 72.1903 29.9246C72.4432 29.9246 72.689 29.8431 72.8895 29.6926C73.0958 29.5498 73.2488 29.3453 73.3253 29.1101C73.4019 28.8748 73.3978 28.6216 73.3136 28.3888L71.3341 22.4375C71.1444 21.8884 71.1397 21.2944 71.3206 20.7424C71.5015 20.1904 71.8586 19.7094 72.3396 19.3699L77.5241 15.6886C77.7242 15.5435 77.8728 15.3409 77.949 15.1091C78.0252 14.8773 78.0252 14.6281 77.9489 14.3964C77.8727 14.1646 77.7241 13.962 77.5239 13.8169C77.3237 13.6718 77.0821 13.5915 76.8328 13.5873H70.4072C69.8309 13.5803 69.2712 13.3976 68.8065 13.0649C68.3417 12.7321 67.995 12.2659 67.815 11.7314L65.804 5.76474C65.7316 5.52885 65.5815 5.32286 65.377 5.17867C65.1725 5.03448 64.925 4.96013 64.6729 4.96714C64.4207 4.96013 64.1732 5.03448 63.9688 5.17867C63.7643 5.32286 63.6142 5.52885 63.5417 5.76474L61.5308 11.7314C61.3507 12.2659 61.004 12.7321 60.5393 13.0649C60.0745 13.3976 59.5148 13.5803 58.9385 13.5873H52.5129Z" fill="#FFE100"/>
<path d="M101.874 31.4105C101.308 31.3968 100.76 31.2148 100.303 30.8889C99.821 30.5506 99.464 30.0688 99.2855 29.5159C99.1071 28.9629 99.1169 28.3684 99.3134 27.8213L101.293 21.87C101.37 21.6352 101.369 21.3825 101.29 21.1482C101.211 20.9139 101.058 20.7102 100.853 20.5662L95.6685 16.885C95.2021 16.5519 94.8544 16.0845 94.6741 15.5484C94.4938 15.0124 94.4901 14.4347 94.6635 13.8965C94.8368 13.3583 95.1785 12.8866 95.6406 12.5478C96.1027 12.209 96.6618 12.02 97.2396 12.0074H103.649C103.891 12.0128 104.128 11.9469 104.33 11.8182C104.531 11.6895 104.689 11.5042 104.781 11.2865L106.76 5.31992C106.928 4.76956 107.274 4.28757 107.748 3.94709C108.221 3.6066 108.796 3.42622 109.384 3.43331C109.967 3.42673 110.537 3.60364 111.01 3.93788C111.482 4.27211 111.832 4.74592 112.007 5.28925L113.987 11.2865C114.068 11.5173 114.22 11.7178 114.423 11.8606C114.625 12.0034 114.868 12.0815 115.118 12.0841H121.544C122.121 12.0967 122.681 12.2857 123.143 12.6245C123.605 12.9633 123.946 13.435 124.12 13.9732C124.293 14.5114 124.289 15.0891 124.109 15.6251C123.929 16.1612 123.581 16.6286 123.115 16.9617L117.93 20.6429C117.725 20.7869 117.572 20.9906 117.493 21.2249C117.414 21.4592 117.413 21.7119 117.49 21.9467L119.486 27.9133C119.678 28.4622 119.684 29.057 119.503 29.6096C119.322 30.1621 118.963 30.643 118.48 30.981C118.012 31.3257 117.441 31.5121 116.854 31.5121C116.267 31.5121 115.697 31.3257 115.228 30.981L110.044 27.2998C109.839 27.1585 109.595 27.0826 109.345 27.0826C109.094 27.0826 108.85 27.1585 108.645 27.2998L103.445 30.981C102.979 31.2787 102.431 31.4287 101.874 31.4105ZM97.2239 13.5873C96.9717 13.5803 96.7243 13.6546 96.5198 13.7988C96.3153 13.943 96.1652 14.149 96.0927 14.3849C96.0112 14.6179 96.0084 14.8703 96.0847 15.105C96.1611 15.3397 96.3126 15.5443 96.5169 15.6886L101.717 19.3699C102.198 19.7094 102.555 20.1904 102.736 20.7424C102.917 21.2944 102.912 21.8884 102.723 22.4375L100.743 28.3428C100.659 28.5756 100.655 28.8288 100.731 29.0641C100.808 29.2993 100.961 29.5038 101.167 29.6465C101.368 29.797 101.613 29.8786 101.866 29.8786C102.119 29.8786 102.365 29.797 102.565 29.6465L107.813 25.9653C108.282 25.6289 108.849 25.4475 109.431 25.4475C110.013 25.4475 110.58 25.6289 111.049 25.9653L116.202 29.6926C116.403 29.8431 116.648 29.9246 116.901 29.9246C117.154 29.9246 117.4 29.8431 117.6 29.6926C117.807 29.5498 117.96 29.3453 118.036 29.1101C118.113 28.8748 118.109 28.6216 118.025 28.3888L116.045 22.4375C115.855 21.8884 115.851 21.2944 116.032 20.7424C116.212 20.1904 116.57 19.7094 117.051 19.3699L122.235 15.6886C122.435 15.5435 122.584 15.3409 122.66 15.1091C122.736 14.8773 122.736 14.6281 122.66 14.3964C122.584 14.1646 122.435 13.962 122.235 13.8169C122.035 13.6718 121.793 13.5915 121.544 13.5873H115.118C114.542 13.5803 113.982 13.3976 113.517 13.0649C113.053 12.7321 112.706 12.2659 112.526 11.7314L110.515 5.76474C110.443 5.52885 110.292 5.32286 110.088 5.17867C109.883 5.03448 109.636 4.96013 109.384 4.96714C109.132 4.96013 108.884 5.03448 108.68 5.17867C108.475 5.32286 108.325 5.52885 108.253 5.76474L106.242 11.7314C106.062 12.2659 105.715 12.7321 105.25 13.0649C104.785 13.3976 104.226 13.5803 103.649 13.5873H97.2239Z" fill="#FFE100"/>
<path d="M146.585 31.4105C146.019 31.3968 145.471 31.2148 145.014 30.8889C144.532 30.5506 144.175 30.0688 143.996 29.5159C143.818 28.9629 143.828 28.3684 144.024 27.8213L146.004 21.87C146.081 21.6352 146.08 21.3825 146.001 21.1482C145.922 20.9139 145.769 20.7102 145.564 20.5662L140.379 16.885C139.913 16.5519 139.565 16.0845 139.385 15.5484C139.205 15.0124 139.201 14.4347 139.374 13.8965C139.548 13.3583 139.889 12.8866 140.352 12.5478C140.814 12.209 141.373 12.02 141.951 12.0074H148.36C148.601 12.0128 148.839 11.9469 149.04 11.8182C149.242 11.6895 149.4 11.5042 149.492 11.2865L151.471 5.31992C151.639 4.76956 151.985 4.28757 152.459 3.94709C152.932 3.6066 153.507 3.42622 154.095 3.43331C154.678 3.42673 155.248 3.60364 155.721 3.93788C156.193 4.27211 156.543 4.74592 156.718 5.28925L158.698 11.2865C158.779 11.5173 158.931 11.7178 159.134 11.8606C159.336 12.0034 159.579 12.0815 159.829 12.0841H166.255C166.832 12.0967 167.392 12.2857 167.854 12.6245C168.316 12.9633 168.657 13.435 168.831 13.9732C169.004 14.5114 169 15.0891 168.82 15.6251C168.64 16.1612 168.292 16.6286 167.826 16.9617L162.641 20.6429C162.436 20.7869 162.283 20.9906 162.204 21.2249C162.125 21.4592 162.124 21.7119 162.201 21.9467L164.197 27.9133C164.389 28.4622 164.395 29.057 164.214 29.6096C164.033 30.1621 163.674 30.643 163.191 30.981C162.723 31.3257 162.152 31.5121 161.565 31.5121C160.978 31.5121 160.408 31.3257 159.939 30.981L154.755 27.2998C154.55 27.1585 154.306 27.0826 154.055 27.0826C153.805 27.0826 153.561 27.1585 153.356 27.2998L148.156 30.981C147.69 31.2787 147.142 31.4287 146.585 31.4105ZM141.935 13.5873C141.683 13.5803 141.435 13.6546 141.231 13.7988C141.026 13.943 140.876 14.149 140.804 14.3849C140.722 14.6179 140.719 14.8703 140.796 15.105C140.872 15.3397 141.024 15.5443 141.228 15.6886L146.428 19.3699C146.909 19.7094 147.266 20.1904 147.447 20.7424C147.628 21.2944 147.623 21.8884 147.433 22.4375L145.454 28.3428C145.37 28.5756 145.366 28.8288 145.442 29.0641C145.519 29.2993 145.672 29.5038 145.878 29.6465C146.079 29.797 146.324 29.8786 146.577 29.8786C146.83 29.8786 147.076 29.797 147.276 29.6465L152.524 25.9653C152.993 25.6289 153.56 25.4475 154.142 25.4475C154.724 25.4475 155.291 25.6289 155.76 25.9653L160.913 29.6926C161.114 29.8431 161.359 29.9246 161.612 29.9246C161.865 29.9246 162.111 29.8431 162.311 29.6926C162.518 29.5498 162.671 29.3453 162.747 29.1101C162.824 28.8748 162.82 28.6216 162.736 28.3888L160.756 22.4375C160.566 21.8884 160.562 21.2944 160.742 20.7424C160.923 20.1904 161.28 19.7094 161.761 19.3699L166.946 15.6886C167.146 15.5435 167.295 15.3409 167.371 15.1091C167.447 14.8773 167.447 14.6281 167.371 14.3964C167.295 14.1646 167.146 13.962 166.946 13.8169C166.746 13.6718 166.504 13.5915 166.255 13.5873H159.829C159.253 13.5803 158.693 13.3976 158.228 13.0649C157.764 12.7321 157.417 12.2659 157.237 11.7314L155.226 5.76474C155.153 5.52885 155.003 5.32286 154.799 5.17867C154.594 5.03448 154.347 4.96013 154.095 4.96714C153.843 4.96013 153.595 5.03448 153.391 5.17867C153.186 5.32286 153.036 5.52885 152.964 5.76474L150.953 11.7314C150.773 12.2659 150.426 12.7321 149.961 13.0649C149.496 13.3976 148.937 13.5803 148.36 13.5873H141.935Z" fill="#FFE100"/>
<path d="M191.296 31.4105C190.73 31.3968 190.182 31.2148 189.725 30.8889C189.243 30.5506 188.886 30.0688 188.707 29.5159C188.529 28.9629 188.539 28.3684 188.735 27.8213L190.715 21.87C190.792 21.6352 190.791 21.3825 190.712 21.1482C190.633 20.9139 190.48 20.7102 190.275 20.5662L185.09 16.885C184.624 16.5519 184.276 16.0845 184.096 15.5484C183.916 15.0124 183.912 14.4347 184.085 13.8965C184.259 13.3583 184.6 12.8866 185.062 12.5478C185.525 12.209 186.084 12.02 186.661 12.0074H193.071C193.312 12.0128 193.549 11.9469 193.751 11.8182C193.953 11.6895 194.111 11.5042 194.202 11.2865L196.182 5.31992C196.35 4.76956 196.696 4.28757 197.17 3.94709C197.643 3.6066 198.218 3.42622 198.806 3.43331C199.389 3.42673 199.959 3.60364 200.432 3.93788C200.904 4.27211 201.254 4.74592 201.429 5.28925L203.409 11.2865C203.49 11.5173 203.642 11.7178 203.845 11.8606C204.047 12.0034 204.29 12.0815 204.54 12.0841H210.966C211.543 12.0967 212.103 12.2857 212.565 12.6245C213.027 12.9633 213.368 13.435 213.542 13.9732C213.715 14.5114 213.711 15.0891 213.531 15.6251C213.351 16.1612 213.003 16.6286 212.537 16.9617L207.352 20.6429C207.147 20.7869 206.994 20.9906 206.915 21.2249C206.836 21.4592 206.835 21.7119 206.912 21.9467L208.908 27.9133C209.1 28.4622 209.106 29.057 208.925 29.6096C208.744 30.1621 208.385 30.643 207.902 30.981C207.433 31.3257 206.863 31.5121 206.276 31.5121C205.689 31.5121 205.119 31.3257 204.65 30.981L199.466 27.2998C199.261 27.1585 199.017 27.0826 198.766 27.0826C198.516 27.0826 198.272 27.1585 198.067 27.2998L192.867 30.981C192.401 31.2787 191.853 31.4287 191.296 31.4105ZM186.646 13.5873C186.394 13.5803 186.146 13.6546 185.942 13.7988C185.737 13.943 185.587 14.149 185.515 14.3849C185.433 14.6179 185.43 14.8703 185.507 15.105C185.583 15.3397 185.734 15.5443 185.939 15.6886L191.139 19.3699C191.62 19.7094 191.977 20.1904 192.158 20.7424C192.339 21.2944 192.334 21.8884 192.144 22.4375L190.165 28.3428C190.081 28.5756 190.077 28.8288 190.153 29.0641C190.23 29.2993 190.383 29.5038 190.589 29.6465C190.79 29.797 191.035 29.8786 191.288 29.8786C191.541 29.8786 191.787 29.797 191.987 29.6465L197.235 25.9653C197.704 25.6289 198.271 25.4475 198.853 25.4475C199.435 25.4475 200.002 25.6289 200.471 25.9653L205.624 29.6926C205.824 29.8431 206.07 29.9246 206.323 29.9246C206.576 29.9246 206.822 29.8431 207.022 29.6926C207.229 29.5498 207.382 29.3453 207.458 29.1101C207.535 28.8748 207.531 28.6216 207.446 28.3888L205.467 22.4375C205.277 21.8884 205.272 21.2944 205.453 20.7424C205.634 20.1904 205.991 19.7094 206.472 19.3699L211.657 15.6886C211.857 15.5435 212.006 15.3409 212.082 15.1091C212.158 14.8773 212.158 14.6281 212.082 14.3964C212.006 14.1646 211.857 13.962 211.657 13.8169C211.457 13.6718 211.215 13.5915 210.966 13.5873H204.54C203.964 13.5803 203.404 13.3976 202.939 13.0649C202.474 12.7321 202.128 12.2659 201.948 11.7314L199.937 5.76474C199.864 5.52885 199.714 5.32286 199.51 5.17867C199.305 5.03448 199.058 4.96013 198.806 4.96714C198.554 4.96013 198.306 5.03448 198.102 5.17867C197.897 5.32286 197.747 5.52885 197.675 5.76474L195.664 11.7314C195.484 12.2659 195.137 12.7321 194.672 13.0649C194.207 13.3976 193.648 13.5803 193.071 13.5873H186.646Z" fill="#FFE100"/>
</svg>
