<svg width="209" height="29" viewBox="0 0 209 29" fill="none" xmlns="http://www.w3.org/2000/svg">
<path d="M7.33805 27.9773C6.77221 27.9637 6.22411 27.7817 5.767 27.4558C5.28482 27.1175 4.92782 26.6357 4.7494 26.0828C4.57099 25.5298 4.58076 24.9353 4.77724 24.3882L6.75676 18.4369C6.83415 18.2021 6.83325 17.9494 6.75421 17.7151C6.67516 17.4808 6.52204 17.2771 6.31686 17.1331L1.1324 13.4519C0.666011 13.1188 0.318251 12.6514 0.137981 12.1153C-0.0422886 11.5793 -0.0460079 11.0016 0.127345 10.4634C0.300699 9.92519 0.642412 9.45354 1.10447 9.11471C1.56653 8.77588 2.12571 8.58691 2.70345 8.57434H9.11334C9.35439 8.57973 9.59147 8.51375 9.79337 8.38507C9.99528 8.2564 10.1525 8.07105 10.2445 7.85343L12.224 1.88682C12.3915 1.33646 12.7383 0.854464 13.2118 0.513981C13.6853 0.173498 14.2596 -0.00688684 14.8477 0.000201174C15.4311 -0.00637248 16.0012 0.170538 16.4737 0.504771C16.9462 0.839004 17.296 1.31282 17.4713 1.85614L19.4509 7.85343C19.532 8.08415 19.6842 8.28469 19.8868 8.4275C20.0893 8.57031 20.3322 8.6484 20.582 8.65103H27.0076C27.5853 8.6636 28.1445 8.85257 28.6066 9.1914C29.0686 9.53023 29.4104 10.0019 29.5837 10.5401C29.7571 11.0783 29.7533 11.656 29.5731 12.192C29.3928 12.7281 29.045 13.1955 28.5787 13.5286L23.3942 17.2098C23.189 17.3538 23.0359 17.5575 22.9568 17.7918C22.8778 18.0261 22.8769 18.2788 22.9543 18.5136L24.9495 24.4802C25.1418 25.0291 25.1478 25.6239 24.9667 26.1765C24.7856 26.729 24.427 27.2099 23.9441 27.5479C23.4755 27.8925 22.9047 28.079 22.318 28.079C21.7313 28.079 21.1606 27.8925 20.692 27.5479L15.5075 23.8667C15.3031 23.7254 15.0588 23.6495 14.8084 23.6495C14.5579 23.6495 14.3137 23.7254 14.1093 23.8667L8.9091 27.5479C8.44324 27.8456 7.89455 27.9956 7.33805 27.9773ZM2.68774 10.1542C2.43559 10.1472 2.18812 10.2215 1.98363 10.3657C1.77914 10.5099 1.62904 10.7159 1.55658 10.9518C1.47505 11.1848 1.47226 11.4372 1.54862 11.6719C1.62497 11.9066 1.77645 12.1112 1.98076 12.2555L7.18094 15.9367C7.66196 16.2763 8.01905 16.7573 8.19997 17.3093C8.38089 17.8613 8.37614 18.4553 8.18642 19.0044L6.20689 24.9097C6.12276 25.1425 6.11866 25.3957 6.19521 25.631C6.27175 25.8662 6.42477 26.0707 6.63107 26.2134C6.83153 26.3639 7.07732 26.4455 7.33019 26.4455C7.58307 26.4455 7.82885 26.3639 8.02931 26.2134L13.2766 22.5322C13.7458 22.1958 14.3127 22.0144 14.8948 22.0144C15.4769 22.0144 16.0438 22.1958 16.513 22.5322L21.666 26.2595C21.8665 26.4099 22.1123 26.4915 22.3652 26.4915C22.618 26.4915 22.8638 26.4099 23.0643 26.2595C23.2706 26.1167 23.4236 25.9122 23.5001 25.677C23.5767 25.4417 23.5726 25.1885 23.4885 24.9557L21.5089 19.0044C21.3192 18.4553 21.3145 17.8613 21.4954 17.3093C21.6763 16.7573 22.0334 16.2763 22.5144 15.9367L27.6989 12.2555C27.899 12.1104 28.0476 11.9077 28.1238 11.676C28.2 11.4442 28.2 11.195 28.1237 10.9633C28.0475 10.7315 27.8989 10.5289 27.6987 10.3838C27.4985 10.2387 27.2569 10.1584 27.0076 10.1542H20.582C20.0057 10.1472 19.446 9.96454 18.9813 9.63178C18.5165 9.29902 18.1698 8.83278 17.9898 8.29825L15.9788 2.33163C15.9064 2.09574 15.7563 1.88975 15.5518 1.74556C15.3473 1.60138 15.0998 1.52703 14.8477 1.53404C14.5955 1.52703 14.3481 1.60138 14.1436 1.74556C13.9391 1.88975 13.789 2.09574 13.7165 2.33163L11.7056 8.29825C11.5255 8.83278 11.1789 9.29902 10.7141 9.63178C10.2493 9.96454 9.68964 10.1472 9.11334 10.1542H2.68774Z" fill="#FFE100"/>
<path d="M52.049 27.9773C51.4831 27.9637 50.9351 27.7817 50.4779 27.4558C49.9958 27.1175 49.6388 26.6357 49.4603 26.0828C49.2819 25.5298 49.2917 24.9353 49.4882 24.3882L51.4677 18.4369C51.5451 18.2021 51.5442 17.9494 51.4651 17.7151C51.3861 17.4808 51.233 17.2771 51.0278 17.1331L45.8433 13.4519C45.3769 13.1188 45.0292 12.6514 44.8489 12.1153C44.6686 11.5793 44.6649 11.0016 44.8383 10.4634C45.0116 9.92519 45.3533 9.45354 45.8154 9.11471C46.2775 8.77588 46.8367 8.58691 47.4144 8.57434H53.8243C54.0653 8.57973 54.3024 8.51375 54.5043 8.38507C54.7062 8.2564 54.8635 8.07105 54.9554 7.85343L56.935 1.88682C57.1024 1.33646 57.4492 0.854464 57.9227 0.513981C58.3962 0.173498 58.9706 -0.00688684 59.5586 0.000201174C60.142 -0.00637248 60.7122 0.170538 61.1847 0.504771C61.6571 0.839004 62.0069 1.31282 62.1823 1.85614L64.1618 7.85343C64.2429 8.08415 64.3952 8.28469 64.5977 8.4275C64.8003 8.57031 65.0431 8.6484 65.2929 8.65103H71.7185C72.2963 8.6636 72.8555 8.85257 73.3175 9.1914C73.7796 9.53023 74.1213 10.0019 74.2946 10.5401C74.468 11.0783 74.4643 11.656 74.284 12.192C74.1037 12.7281 73.756 13.1955 73.2896 13.5286L68.1051 17.2098C67.9 17.3538 67.7468 17.5575 67.6678 17.7918C67.5887 18.0261 67.5878 18.2788 67.6652 18.5136L69.6605 24.4802C69.8527 25.0291 69.8588 25.6239 69.6777 26.1765C69.4966 26.729 69.138 27.2099 68.655 27.5479C68.1864 27.8925 67.6157 28.079 67.029 28.079C66.4423 28.079 65.8715 27.8925 65.4029 27.5479L60.2185 23.8667C60.0141 23.7254 59.7698 23.6495 59.5193 23.6495C59.2689 23.6495 59.0246 23.7254 58.8202 23.8667L53.62 27.5479C53.1542 27.8456 52.6055 27.9956 52.049 27.9773ZM47.3987 10.1542C47.1465 10.1472 46.8991 10.2215 46.6946 10.3657C46.4901 10.5099 46.34 10.7159 46.2675 10.9518C46.186 11.1848 46.1832 11.4372 46.2596 11.6719C46.3359 11.9066 46.4874 12.1112 46.6917 12.2555L51.8919 15.9367C52.3729 16.2763 52.73 16.7573 52.9109 17.3093C53.0918 17.8613 53.0871 18.4553 52.8974 19.0044L50.9178 24.9097C50.8337 25.1425 50.8296 25.3957 50.9061 25.631C50.9827 25.8662 51.1357 26.0707 51.342 26.2134C51.5425 26.3639 51.7883 26.4455 52.0411 26.4455C52.294 26.4455 52.5398 26.3639 52.7402 26.2134L57.9876 22.5322C58.4567 22.1958 59.0236 22.0144 59.6057 22.0144C60.1878 22.0144 60.7548 22.1958 61.2239 22.5322L66.377 26.2595C66.5774 26.4099 66.8232 26.4915 67.0761 26.4915C67.329 26.4915 67.5747 26.4099 67.7752 26.2595C67.9815 26.1167 68.1345 25.9122 68.2111 25.677C68.2876 25.4417 68.2835 25.1885 68.1994 24.9557L66.2199 19.0044C66.0301 18.4553 66.0254 17.8613 66.2063 17.3093C66.3872 16.7573 66.7443 16.2763 67.2253 15.9367L72.4098 12.2555C72.6099 12.1104 72.7585 11.9077 72.8347 11.676C72.9109 11.4442 72.9109 11.195 72.8347 10.9633C72.7584 10.7315 72.6098 10.5289 72.4096 10.3838C72.2095 10.2387 71.9678 10.1584 71.7185 10.1542H65.2929C64.7166 10.1472 64.157 9.96454 63.6922 9.63178C63.2274 9.29902 62.8808 8.83278 62.7007 8.29825L60.6898 2.33163C60.6173 2.09574 60.4672 1.88975 60.2627 1.74556C60.0582 1.60138 59.8108 1.52703 59.5586 1.53404C59.3065 1.52703 59.059 1.60138 58.8545 1.74556C58.65 1.88975 58.4999 2.09574 58.4275 2.33163L56.4165 8.29825C56.2364 8.83278 55.8898 9.29902 55.425 9.63178C54.9602 9.96454 54.4006 10.1472 53.8243 10.1542H47.3987Z" fill="#FFE100"/>
<path d="M96.7599 27.9773C96.1941 27.9637 95.646 27.7817 95.1889 27.4558C94.7067 27.1175 94.3497 26.6357 94.1713 26.0828C93.9929 25.5298 94.0026 24.9353 94.1991 24.3882L96.1786 18.4369C96.256 18.2021 96.2551 17.9494 96.1761 17.7151C96.097 17.4808 95.9439 17.2771 95.7387 17.1331L90.5543 13.4519C90.0879 13.1188 89.7401 12.6514 89.5599 12.1153C89.3796 11.5793 89.3759 11.0016 89.5492 10.4634C89.7226 9.92519 90.0643 9.45354 90.5263 9.11471C90.9884 8.77588 91.5476 8.58691 92.1253 8.57434H98.5352C98.7763 8.57973 99.0133 8.51375 99.2152 8.38507C99.4172 8.2564 99.5744 8.07105 99.6664 7.85343L101.646 1.88682C101.813 1.33646 102.16 0.854464 102.634 0.513981C103.107 0.173498 103.682 -0.00688684 104.27 0.000201174C104.853 -0.00637248 105.423 0.170538 105.896 0.504771C106.368 0.839004 106.718 1.31282 106.893 1.85614L108.873 7.85343C108.954 8.08415 109.106 8.28469 109.309 8.4275C109.511 8.57031 109.754 8.6484 110.004 8.65103H116.429C117.007 8.6636 117.566 8.85257 118.028 9.1914C118.491 9.53023 118.832 10.0019 119.006 10.5401C119.179 11.0783 119.175 11.656 118.995 12.192C118.815 12.7281 118.467 13.1955 118.001 13.5286L112.816 17.2098C112.611 17.3538 112.458 17.5575 112.379 17.7918C112.3 18.0261 112.299 18.2788 112.376 18.5136L114.371 24.4802C114.564 25.0291 114.57 25.6239 114.389 26.1765C114.208 26.729 113.849 27.2099 113.366 27.5479C112.897 27.8925 112.327 28.079 111.74 28.079C111.153 28.079 110.582 27.8925 110.114 27.5479L104.929 23.8667C104.725 23.7254 104.481 23.6495 104.23 23.6495C103.98 23.6495 103.736 23.7254 103.531 23.8667L98.331 27.5479C97.8651 27.8456 97.3164 27.9956 96.7599 27.9773ZM92.1096 10.1542C91.8575 10.1472 91.61 10.2215 91.4055 10.3657C91.201 10.5099 91.0509 10.7159 90.9785 10.9518C90.8969 11.1848 90.8941 11.4372 90.9705 11.6719C91.0468 11.9066 91.1983 12.1112 91.4026 12.2555L96.6028 15.9367C97.0838 16.2763 97.4409 16.7573 97.6218 17.3093C97.8028 17.8613 97.798 18.4553 97.6083 19.0044L95.6288 24.9097C95.5446 25.1425 95.5405 25.3957 95.6171 25.631C95.6936 25.8662 95.8466 26.0707 96.0529 26.2134C96.2534 26.3639 96.4992 26.4455 96.7521 26.4455C97.0049 26.4455 97.2507 26.3639 97.4512 26.2134L102.698 22.5322C103.168 22.1958 103.735 22.0144 104.317 22.0144C104.899 22.0144 105.466 22.1958 105.935 22.5322L111.088 26.2595C111.288 26.4099 111.534 26.4915 111.787 26.4915C112.04 26.4915 112.286 26.4099 112.486 26.2595C112.692 26.1167 112.845 25.9122 112.922 25.677C112.999 25.4417 112.994 25.1885 112.91 24.9557L110.931 19.0044C110.741 18.4553 110.736 17.8613 110.917 17.3093C111.098 16.7573 111.455 16.2763 111.936 15.9367L117.121 12.2555C117.321 12.1104 117.469 11.9077 117.546 11.676C117.622 11.4442 117.622 11.195 117.546 10.9633C117.469 10.7315 117.321 10.5289 117.121 10.3838C116.92 10.2387 116.679 10.1584 116.429 10.1542H110.004C109.428 10.1472 108.868 9.96454 108.403 9.63178C107.938 9.29902 107.592 8.83278 107.412 8.29825L105.401 2.33163C105.328 2.09574 105.178 1.88975 104.974 1.74556C104.769 1.60138 104.522 1.52703 104.27 1.53404C104.017 1.52703 103.77 1.60138 103.565 1.74556C103.361 1.88975 103.211 2.09574 103.138 2.33163L101.127 8.29825C100.947 8.83278 100.601 9.29902 100.136 9.63178C99.6712 9.96454 99.1115 10.1472 98.5352 10.1542H92.1096Z" fill="#FFE100"/>
<path d="M141.471 27.9773C140.906 27.9637 140.357 27.7817 139.9 27.4558C139.418 27.1175 139.061 26.6357 138.883 26.0828C138.704 25.5298 138.714 24.9353 138.911 24.3882L140.89 18.4369C140.967 18.2021 140.967 17.9494 140.888 17.7151C140.808 17.4808 140.655 17.2771 140.45 17.1331L135.266 13.4519C134.799 13.1188 134.452 12.6514 134.271 12.1153C134.091 11.5793 134.087 11.0016 134.261 10.4634C134.434 9.92519 134.776 9.45354 135.238 9.11471C135.7 8.77588 136.259 8.58691 136.837 8.57434H143.247C143.488 8.57973 143.725 8.51375 143.927 8.38507C144.129 8.2564 144.286 8.07105 144.378 7.85343L146.357 1.88682C146.525 1.33646 146.872 0.854464 147.345 0.513981C147.819 0.173498 148.393 -0.00688684 148.981 0.000201174C149.564 -0.00637248 150.135 0.170538 150.607 0.504771C151.08 0.839004 151.429 1.31282 151.605 1.85614L153.584 7.85343C153.665 8.08415 153.818 8.28469 154.02 8.4275C154.223 8.57031 154.465 8.6484 154.715 8.65103H161.141C161.719 8.6636 162.278 8.85257 162.74 9.1914C163.202 9.53023 163.544 10.0019 163.717 10.5401C163.89 11.0783 163.887 11.656 163.706 12.192C163.526 12.7281 163.178 13.1955 162.712 13.5286L157.527 17.2098C157.322 17.3538 157.169 17.5575 157.09 17.7918C157.011 18.0261 157.01 18.2788 157.088 18.5136L159.083 24.4802C159.275 25.0291 159.281 25.6239 159.1 26.1765C158.919 26.729 158.56 27.2099 158.077 27.5479C157.609 27.8925 157.038 28.079 156.451 28.079C155.865 28.079 155.294 27.8925 154.825 27.5479L149.641 23.8667C149.436 23.7254 149.192 23.6495 148.942 23.6495C148.691 23.6495 148.447 23.7254 148.243 23.8667L143.042 27.5479C142.577 27.8456 142.028 27.9956 141.471 27.9773ZM136.821 10.1542C136.569 10.1472 136.321 10.2215 136.117 10.3657C135.912 10.5099 135.762 10.7159 135.69 10.9518C135.608 11.1848 135.606 11.4372 135.682 11.6719C135.758 11.9066 135.91 12.1112 136.114 12.2555L141.314 15.9367C141.795 16.2763 142.152 16.7573 142.333 17.3093C142.514 17.8613 142.509 18.4553 142.32 19.0044L140.34 24.9097C140.256 25.1425 140.252 25.3957 140.329 25.631C140.405 25.8662 140.558 26.0707 140.764 26.2134C140.965 26.3639 141.211 26.4455 141.463 26.4455C141.716 26.4455 141.962 26.3639 142.163 26.2134L147.41 22.5322C147.879 22.1958 148.446 22.0144 149.028 22.0144C149.61 22.0144 150.177 22.1958 150.646 22.5322L155.799 26.2595C156 26.4099 156.246 26.4915 156.498 26.4915C156.751 26.4915 156.997 26.4099 157.198 26.2595C157.404 26.1167 157.557 25.9122 157.633 25.677C157.71 25.4417 157.706 25.1885 157.622 24.9557L155.642 19.0044C155.453 18.4553 155.448 17.8613 155.629 17.3093C155.81 16.7573 156.167 16.2763 156.648 15.9367L161.832 12.2555C162.032 12.1104 162.181 11.9077 162.257 11.676C162.333 11.4442 162.333 11.195 162.257 10.9633C162.181 10.7315 162.032 10.5289 161.832 10.3838C161.632 10.2387 161.39 10.1584 161.141 10.1542H154.715C154.139 10.1472 153.579 9.96454 153.115 9.63178C152.65 9.29902 152.303 8.83278 152.123 8.29825L150.112 2.33163C150.04 2.09574 149.89 1.88975 149.685 1.74556C149.481 1.60138 149.233 1.52703 148.981 1.53404C148.729 1.52703 148.481 1.60138 148.277 1.74556C148.072 1.88975 147.922 2.09574 147.85 2.33163L145.839 8.29825C145.659 8.83278 145.312 9.29902 144.847 9.63178C144.383 9.96454 143.823 10.1472 143.247 10.1542H136.821Z" fill="#FFE100"/>
<path d="M186.182 27.9773C185.616 27.9637 185.068 27.7817 184.611 27.4558C184.129 27.1175 183.772 26.6357 183.594 26.0828C183.415 25.5298 183.425 24.9353 183.621 24.3882L185.601 18.4369C185.678 18.2021 185.677 17.9494 185.598 17.7151C185.519 17.4808 185.366 17.2771 185.161 17.1331L179.977 13.4519C179.51 13.1188 179.162 12.6514 178.982 12.1153C178.802 11.5793 178.798 11.0016 178.972 10.4634C179.145 9.92519 179.487 9.45354 179.949 9.11471C180.411 8.77588 180.97 8.58691 181.548 8.57434H187.958C188.199 8.57973 188.436 8.51375 188.638 8.38507C188.84 8.2564 188.997 8.07105 189.089 7.85343L191.068 1.88682C191.236 1.33646 191.583 0.854464 192.056 0.513981C192.53 0.173498 193.104 -0.00688684 193.692 0.000201174C194.275 -0.00637248 194.845 0.170538 195.318 0.504771C195.79 0.839004 196.14 1.31282 196.316 1.85614L198.295 7.85343C198.376 8.08415 198.528 8.28469 198.731 8.4275C198.934 8.57031 199.176 8.6484 199.426 8.65103H205.852C206.43 8.6636 206.989 8.85257 207.451 9.1914C207.913 9.53023 208.255 10.0019 208.428 10.5401C208.601 11.0783 208.598 11.656 208.417 12.192C208.237 12.7281 207.889 13.1955 207.423 13.5286L202.238 17.2098C202.033 17.3538 201.88 17.5575 201.801 17.7918C201.722 18.0261 201.721 18.2788 201.799 18.5136L203.794 24.4802C203.986 25.0291 203.992 25.6239 203.811 26.1765C203.63 26.729 203.271 27.2099 202.788 27.5479C202.32 27.8925 201.749 28.079 201.162 28.079C200.576 28.079 200.005 27.8925 199.536 27.5479L194.352 23.8667C194.147 23.7254 193.903 23.6495 193.653 23.6495C193.402 23.6495 193.158 23.7254 192.954 23.8667L187.753 27.5479C187.287 27.8456 186.739 27.9956 186.182 27.9773ZM181.532 10.1542C181.28 10.1472 181.032 10.2215 180.828 10.3657C180.623 10.5099 180.473 10.7159 180.401 10.9518C180.319 11.1848 180.316 11.4372 180.393 11.6719C180.469 11.9066 180.621 12.1112 180.825 12.2555L186.025 15.9367C186.506 16.2763 186.863 16.7573 187.044 17.3093C187.225 17.8613 187.22 18.4553 187.031 19.0044L185.051 24.9097C184.967 25.1425 184.963 25.3957 185.039 25.631C185.116 25.8662 185.269 26.0707 185.475 26.2134C185.676 26.3639 185.922 26.4455 186.174 26.4455C186.427 26.4455 186.673 26.3639 186.874 26.2134L192.121 22.5322C192.59 22.1958 193.157 22.0144 193.739 22.0144C194.321 22.0144 194.888 22.1958 195.357 22.5322L200.51 26.2595C200.711 26.4099 200.957 26.4915 201.209 26.4915C201.462 26.4915 201.708 26.4099 201.909 26.2595C202.115 26.1167 202.268 25.9122 202.344 25.677C202.421 25.4417 202.417 25.1885 202.333 24.9557L200.353 19.0044C200.163 18.4553 200.159 17.8613 200.34 17.3093C200.521 16.7573 200.878 16.2763 201.359 15.9367L206.543 12.2555C206.743 12.1104 206.892 11.9077 206.968 11.676C207.044 11.4442 207.044 11.195 206.968 10.9633C206.892 10.7315 206.743 10.5289 206.543 10.3838C206.343 10.2387 206.101 10.1584 205.852 10.1542H199.426C198.85 10.1472 198.29 9.96454 197.826 9.63178C197.361 9.29902 197.014 8.83278 196.834 8.29825L194.823 2.33163C194.751 2.09574 194.601 1.88975 194.396 1.74556C194.192 1.60138 193.944 1.52703 193.692 1.53404C193.44 1.52703 193.192 1.60138 192.988 1.74556C192.783 1.88975 192.633 2.09574 192.561 2.33163L190.55 8.29825C190.37 8.83278 190.023 9.29902 189.558 9.63178C189.094 9.96454 188.534 10.1472 187.958 10.1542H181.532Z" fill="#FFE100"/>
</svg>
