<svg width="219" height="35" viewBox="0 0 219 35" fill="none" xmlns="http://www.w3.org/2000/svg">
<path d="M30.2663 12.8095C31.9979 13.0562 32.601 15.25 31.2388 16.3472L26.1248 20.4659C25.529 20.9458 25.2591 21.7234 25.4296 22.4692L27.0139 29.4004C27.4222 31.1862 25.4143 32.5355 23.915 31.4829L18.5617 27.7244C17.8721 27.2402 16.9529 27.2402 16.2633 27.7244L10.91 31.4829C9.41071 32.5355 7.40281 31.1861 7.81102 29.4003L9.39537 22.4692C9.56584 21.7234 9.29596 20.9458 8.70016 20.4659L3.58619 16.3472C2.22396 15.25 2.82703 13.0562 4.55864 12.8095L10.582 11.9515C11.2252 11.8599 11.7838 11.4615 12.08 10.8833L15.6324 3.94792C16.3756 2.49696 18.4494 2.49696 19.1926 3.94792L22.7449 10.8833C23.0411 11.4615 23.5997 11.8599 24.243 11.9515L30.2663 12.8095Z" fill="#FFE100"/>
<path d="M80.0915 12.8095C81.8231 13.0562 82.4262 15.25 81.064 16.3472L75.95 20.4659C75.3542 20.9458 75.0843 21.7234 75.2548 22.4692L76.8391 29.4004C77.2473 31.1862 75.2394 32.5355 73.7402 31.4829L68.3869 27.7244C67.6973 27.2402 66.7781 27.2402 66.0885 27.7244L60.7352 31.4829C59.2359 32.5355 57.228 31.1861 57.6362 29.4003L59.2206 22.4692C59.391 21.7234 59.1212 20.9458 58.5254 20.4659L53.4114 16.3472C52.0492 15.25 52.6522 13.0562 54.3838 12.8095L60.4072 11.9515C61.0504 11.8599 61.609 11.4615 61.9052 10.8833L65.4576 3.94792C66.2008 2.49696 68.2745 2.49696 69.0178 3.94792L72.5701 10.8833C72.8663 11.4615 73.4249 11.8599 74.0682 11.9515L80.0915 12.8095Z" fill="#FFE100"/>
<path d="M106.988 31.4105C106.422 31.3968 105.874 31.2148 105.417 30.8889C104.935 30.5506 104.578 30.0688 104.399 29.5159C104.221 28.9629 104.231 28.3684 104.427 27.8213L106.407 21.87C106.484 21.6352 106.483 21.3825 106.404 21.1482C106.325 20.9139 106.172 20.7102 105.967 20.5662L100.782 16.885C100.316 16.5519 99.9682 16.0845 99.7879 15.5484C99.6076 15.0124 99.6039 14.4347 99.7772 13.8965C99.9506 13.3583 100.292 12.8866 100.754 12.5478C101.216 12.209 101.776 12.02 102.353 12.0074H108.763C109.004 12.0128 109.241 11.9469 109.443 11.8182C109.645 11.6895 109.802 11.5042 109.894 11.2865L111.874 5.31992C112.041 4.76956 112.388 4.28757 112.862 3.94709C113.335 3.6066 113.91 3.42622 114.498 3.43331C115.081 3.42673 115.651 3.60364 116.124 3.93788C116.596 4.27211 116.946 4.74592 117.121 5.28925L119.101 11.2865C119.182 11.5173 119.334 11.7178 119.537 11.8606C119.739 12.0034 119.982 12.0815 120.232 12.0841H126.658C127.235 12.0967 127.794 12.2857 128.256 12.6245C128.719 12.9633 129.06 13.435 129.234 13.9732C129.407 14.5114 129.403 15.0891 129.223 15.6251C129.043 16.1612 128.695 16.6286 128.229 16.9617L123.044 20.6429C122.839 20.7869 122.686 20.9906 122.607 21.2249C122.528 21.4592 122.527 21.7119 122.604 21.9467L124.599 27.9133C124.792 28.4622 124.798 29.057 124.617 29.6096C124.436 30.1621 124.077 30.643 123.594 30.981C123.125 31.3257 122.555 31.5121 121.968 31.5121C121.381 31.5121 120.81 31.3257 120.342 30.981L115.157 27.2998C114.953 27.1585 114.709 27.0826 114.458 27.0826C114.208 27.0826 113.964 27.1585 113.759 27.2998L108.559 30.981C108.093 31.2787 107.544 31.4287 106.988 31.4105ZM102.338 13.5873C102.085 13.5803 101.838 13.6546 101.634 13.7988C101.429 13.943 101.279 14.149 101.206 14.3849C101.125 14.6179 101.122 14.8703 101.199 15.105C101.275 15.3397 101.426 15.5443 101.631 15.6886L106.831 19.3699C107.312 19.7094 107.669 20.1904 107.85 20.7424C108.031 21.2944 108.026 21.8884 107.836 22.4375L105.857 28.3428C105.773 28.5756 105.769 28.8288 105.845 29.0641C105.922 29.2993 106.075 29.5038 106.281 29.6465C106.481 29.797 106.727 29.8786 106.98 29.8786C107.233 29.8786 107.479 29.797 107.679 29.6465L112.927 25.9653C113.396 25.6289 113.963 25.4475 114.545 25.4475C115.127 25.4475 115.694 25.6289 116.163 25.9653L121.316 29.6926C121.516 29.8431 121.762 29.9246 122.015 29.9246C122.268 29.9246 122.514 29.8431 122.714 29.6926C122.92 29.5498 123.073 29.3453 123.15 29.1101C123.227 28.8748 123.222 28.6216 123.138 28.3888L121.159 22.4375C120.969 21.8884 120.964 21.2944 121.145 20.7424C121.326 20.1904 121.683 19.7094 122.164 19.3699L127.349 15.6886C127.549 15.5435 127.697 15.3409 127.774 15.1091C127.85 14.8773 127.85 14.6281 127.774 14.3964C127.697 14.1646 127.549 13.962 127.349 13.8169C127.148 13.6718 126.907 13.5915 126.658 13.5873H120.232C119.656 13.5803 119.096 13.3976 118.631 13.0649C118.166 12.7321 117.82 12.2659 117.64 11.7314L115.629 5.76474C115.556 5.52885 115.406 5.32286 115.202 5.17867C114.997 5.03448 114.75 4.96013 114.498 4.96714C114.245 4.96013 113.998 5.03448 113.793 5.17867C113.589 5.32286 113.439 5.52885 113.366 5.76474L111.355 11.7314C111.175 12.2659 110.829 12.7321 110.364 13.0649C109.899 13.3976 109.34 13.5803 108.763 13.5873H102.338Z" fill="#FFE100"/>
<path d="M151.699 31.4105C151.133 31.3968 150.585 31.2148 150.128 30.8889C149.646 30.5506 149.289 30.0688 149.11 29.5159C148.932 28.9629 148.942 28.3684 149.138 27.8213L151.118 21.87C151.195 21.6352 151.194 21.3825 151.115 21.1482C151.036 20.9139 150.883 20.7102 150.678 20.5662L145.493 16.885C145.027 16.5519 144.679 16.0845 144.499 15.5484C144.319 15.0124 144.315 14.4347 144.488 13.8965C144.662 13.3583 145.003 12.8866 145.465 12.5478C145.927 12.209 146.487 12.02 147.064 12.0074H153.474C153.715 12.0128 153.952 11.9469 154.154 11.8182C154.356 11.6895 154.513 11.5042 154.605 11.2865L156.585 5.31992C156.752 4.76956 157.099 4.28757 157.573 3.94709C158.046 3.6066 158.62 3.42622 159.209 3.43331C159.792 3.42673 160.362 3.60364 160.835 3.93788C161.307 4.27211 161.657 4.74592 161.832 5.28925L163.812 11.2865C163.893 11.5173 164.045 11.7178 164.248 11.8606C164.45 12.0034 164.693 12.0815 164.943 12.0841H171.368C171.946 12.0967 172.505 12.2857 172.967 12.6245C173.429 12.9633 173.771 13.435 173.945 13.9732C174.118 14.5114 174.114 15.0891 173.934 15.6251C173.754 16.1612 173.406 16.6286 172.939 16.9617L167.755 20.6429C167.55 20.7869 167.397 20.9906 167.318 21.2249C167.239 21.4592 167.238 21.7119 167.315 21.9467L169.31 27.9133C169.503 28.4622 169.509 29.057 169.328 29.6096C169.146 30.1621 168.788 30.643 168.305 30.981C167.836 31.3257 167.266 31.5121 166.679 31.5121C166.092 31.5121 165.521 31.3257 165.053 30.981L159.868 27.2998C159.664 27.1585 159.42 27.0826 159.169 27.0826C158.919 27.0826 158.675 27.1585 158.47 27.2998L153.27 30.981C152.804 31.2787 152.255 31.4287 151.699 31.4105ZM147.049 13.5873C146.796 13.5803 146.549 13.6546 146.344 13.7988C146.14 13.943 145.99 14.149 145.917 14.3849C145.836 14.6179 145.833 14.8703 145.909 15.105C145.986 15.3397 146.137 15.5443 146.342 15.6886L151.542 19.3699C152.023 19.7094 152.38 20.1904 152.561 20.7424C152.742 21.2944 152.737 21.8884 152.547 22.4375L150.568 28.3428C150.484 28.5756 150.48 28.8288 150.556 29.0641C150.633 29.2993 150.786 29.5038 150.992 29.6465C151.192 29.797 151.438 29.8786 151.691 29.8786C151.944 29.8786 152.19 29.797 152.39 29.6465L157.637 25.9653C158.107 25.6289 158.674 25.4475 159.256 25.4475C159.838 25.4475 160.405 25.6289 160.874 25.9653L166.027 29.6926C166.227 29.8431 166.473 29.9246 166.726 29.9246C166.979 29.9246 167.225 29.8431 167.425 29.6926C167.631 29.5498 167.784 29.3453 167.861 29.1101C167.938 28.8748 167.933 28.6216 167.849 28.3888L165.87 22.4375C165.68 21.8884 165.675 21.2944 165.856 20.7424C166.037 20.1904 166.394 19.7094 166.875 19.3699L172.06 15.6886C172.26 15.5435 172.408 15.3409 172.485 15.1091C172.561 14.8773 172.561 14.6281 172.485 14.3964C172.408 14.1646 172.26 13.962 172.06 13.8169C171.859 13.6718 171.618 13.5915 171.368 13.5873H164.943C164.367 13.5803 163.807 13.3976 163.342 13.0649C162.877 12.7321 162.531 12.2659 162.351 11.7314L160.34 5.76474C160.267 5.52885 160.117 5.32286 159.913 5.17867C159.708 5.03448 159.461 4.96013 159.209 4.96714C158.956 4.96013 158.709 5.03448 158.504 5.17867C158.3 5.32286 158.15 5.52885 158.077 5.76474L156.066 11.7314C155.886 12.2659 155.54 12.7321 155.075 13.0649C154.61 13.3976 154.05 13.5803 153.474 13.5873H147.049Z" fill="#FFE100"/>
<path d="M196.41 31.4105C195.844 31.3968 195.296 31.2148 194.839 30.8889C194.357 30.5506 194 30.0688 193.822 29.5159C193.643 28.9629 193.653 28.3684 193.85 27.8213L195.829 21.87C195.906 21.6352 195.906 21.3825 195.826 21.1482C195.747 20.9139 195.594 20.7102 195.389 20.5662L190.205 16.885C189.738 16.5519 189.391 16.0845 189.21 15.5484C189.03 15.0124 189.026 14.4347 189.2 13.8965C189.373 13.3583 189.715 12.8866 190.177 12.5478C190.639 12.209 191.198 12.02 191.776 12.0074H198.186C198.427 12.0128 198.664 11.9469 198.866 11.8182C199.068 11.6895 199.225 11.5042 199.317 11.2865L201.296 5.31992C201.464 4.76956 201.811 4.28757 202.284 3.94709C202.758 3.6066 203.332 3.42622 203.92 3.43331C204.503 3.42673 205.073 3.60364 205.546 3.93788C206.018 4.27211 206.368 4.74592 206.544 5.28925L208.523 11.2865C208.604 11.5173 208.757 11.7178 208.959 11.8606C209.162 12.0034 209.404 12.0815 209.654 12.0841H216.08C216.658 12.0967 217.217 12.2857 217.679 12.6245C218.141 12.9633 218.483 13.435 218.656 13.9732C218.829 14.5114 218.826 15.0891 218.645 15.6251C218.465 16.1612 218.117 16.6286 217.651 16.9617L212.466 20.6429C212.261 20.7869 212.108 20.9906 212.029 21.2249C211.95 21.4592 211.949 21.7119 212.027 21.9467L214.022 27.9133C214.214 28.4622 214.22 29.057 214.039 29.6096C213.858 30.1621 213.499 30.643 213.016 30.981C212.548 31.3257 211.977 31.5121 211.39 31.5121C210.804 31.5121 210.233 31.3257 209.764 30.981L204.58 27.2998C204.375 27.1585 204.131 27.0826 203.881 27.0826C203.63 27.0826 203.386 27.1585 203.182 27.2998L197.981 30.981C197.516 31.2787 196.967 31.4287 196.41 31.4105ZM191.76 13.5873C191.508 13.5803 191.26 13.6546 191.056 13.7988C190.851 13.943 190.701 14.149 190.629 14.3849C190.547 14.6179 190.545 14.8703 190.621 15.105C190.697 15.3397 190.849 15.5443 191.053 15.6886L196.253 19.3699C196.734 19.7094 197.091 20.1904 197.272 20.7424C197.453 21.2944 197.448 21.8884 197.259 22.4375L195.279 28.3428C195.195 28.5756 195.191 28.8288 195.267 29.0641C195.344 29.2993 195.497 29.5038 195.703 29.6465C195.904 29.797 196.15 29.8786 196.402 29.8786C196.655 29.8786 196.901 29.797 197.102 29.6465L202.349 25.9653C202.818 25.6289 203.385 25.4475 203.967 25.4475C204.549 25.4475 205.116 25.6289 205.585 25.9653L210.738 29.6926C210.939 29.8431 211.185 29.9246 211.437 29.9246C211.69 29.9246 211.936 29.8431 212.137 29.6926C212.343 29.5498 212.496 29.3453 212.572 29.1101C212.649 28.8748 212.645 28.6216 212.561 28.3888L210.581 22.4375C210.391 21.8884 210.387 21.2944 210.568 20.7424C210.749 20.1904 211.106 19.7094 211.587 19.3699L216.771 15.6886C216.971 15.5435 217.12 15.3409 217.196 15.1091C217.272 14.8773 217.272 14.6281 217.196 14.3964C217.12 14.1646 216.971 13.962 216.771 13.8169C216.571 13.6718 216.329 13.5915 216.08 13.5873H209.654C209.078 13.5803 208.518 13.3976 208.054 13.0649C207.589 12.7321 207.242 12.2659 207.062 11.7314L205.051 5.76474C204.979 5.52885 204.829 5.32286 204.624 5.17867C204.42 5.03448 204.172 4.96013 203.92 4.96714C203.668 4.96013 203.42 5.03448 203.216 5.17867C203.011 5.32286 202.861 5.52885 202.789 5.76474L200.778 11.7314C200.598 12.2659 200.251 12.7321 199.786 13.0649C199.322 13.3976 198.762 13.5803 198.186 13.5873H191.76Z" fill="#FFE100"/>
</svg>
