<svg width="22" height="24" viewBox="0 0 22 24" fill="none" xmlns="http://www.w3.org/2000/svg">
    <path
        d="M5.80016 24C4.31408 24 2.82796 23.4118 1.69665 22.2349C-0.56579 19.8811 -0.565539 16.052 1.69734 13.6987L13.6269 1.28989C15.2807 -0.430095 17.9711 -0.429833 19.6244 1.28989C20.4343 2.13229 20.8758 3.24029 20.8758 4.41802C20.8758 5.59575 20.4342 6.7037 19.6327 7.53713L8.62565 18.9853L8.47963 19.121C7.54539 20.0792 6.03605 20.075 5.10637 19.1084L5.08448 19.0852C4.63732 18.6203 4.38799 17.9948 4.38799 17.3301C4.38799 16.6652 4.63736 16.0396 5.08972 15.5693L10.8073 9.6218C11.0299 9.38993 11.3911 9.38993 11.6138 9.6218C11.8367 9.8534 11.8367 10.229 11.6138 10.4606L5.89643 16.4084C5.65939 16.655 5.5289 16.9825 5.5289 17.3303C5.5289 17.6782 5.65939 18.0057 5.89643 18.2521L5.91832 18.2754C6.40149 18.778 7.1968 18.7779 7.68526 18.2698L18.8261 6.69843C19.4122 6.08879 19.735 5.27911 19.735 4.4182C19.735 3.55729 19.4122 2.74761 18.8261 2.13798C17.609 0.871739 15.6425 0.871739 14.4333 2.12923L2.50379 14.5375C0.685766 16.4283 0.685514 19.5052 2.5031 21.3958C4.32138 23.2866 7.27941 23.2866 9.09696 21.3958L21.0264 8.98674C21.2492 8.75487 21.6102 8.75487 21.8328 8.98674C22.0557 9.21834 22.0557 9.59398 21.8328 9.82562L9.90345 22.2347C8.77239 23.4114 7.28624 24 5.80016 24Z"
        fill="black"/>
    </svg>