<svg width="21" height="21" viewBox="0 0 21 21" fill="none" xmlns="http://www.w3.org/2000/svg">
<path d="M18.5391 2.1877e-06H2.46094C1.80826 2.1877e-06 1.18231 0.259279 0.720792 0.720794C0.259277 1.18231 0 1.80826 0 2.46094L0 13.0545C0 13.7071 0.259277 14.3331 0.720792 14.7946C1.18231 15.2561 1.80826 15.5154 2.46094 15.5154H6.28031C6.32382 15.5154 6.36555 15.5327 6.39632 15.5634C6.42709 15.5942 6.44438 15.6359 6.44438 15.6795V19.8516C6.44436 20.0787 6.5117 20.3008 6.6379 20.4896C6.76409 20.6785 6.94345 20.8257 7.15331 20.9127C7.36317 20.9996 7.5941 21.0223 7.81688 20.978C8.03967 20.9337 8.24431 20.8243 8.40492 20.6637L13.504 15.5646C13.5193 15.5494 13.5375 15.5374 13.5575 15.5292C13.5775 15.521 13.5989 15.5169 13.6205 15.517H18.5423C19.195 15.517 19.821 15.2578 20.2825 14.7962C20.744 14.3347 21.0033 13.7088 21.0033 13.0561V2.46094C21.0033 2.13749 20.9395 1.81721 20.8156 1.51842C20.6918 1.21963 20.5102 0.948195 20.2813 0.719633C20.0525 0.491071 19.7808 0.309868 19.4818 0.186387C19.1829 0.0629067 18.8625 -0.000429081 18.5391 2.1877e-06ZM20.0156 13.0545C20.0156 13.4461 19.8601 13.8216 19.5831 14.0985C19.3062 14.3755 18.9307 14.531 18.5391 14.531H13.6172C13.3138 14.5288 13.0218 14.6468 12.8051 14.8591L7.71094 19.9664C7.68799 19.9895 7.65867 20.0053 7.62672 20.0117C7.59477 20.0181 7.56163 20.0149 7.53154 20.0024C7.50144 19.9899 7.47575 19.9687 7.45773 19.9416C7.43972 19.9144 7.4302 19.8825 7.43039 19.8499V15.6795C7.43039 15.3749 7.30939 15.0828 7.09402 14.8674C6.87865 14.652 6.58654 14.531 6.28195 14.531H2.46094C2.06933 14.531 1.69376 14.3755 1.41685 14.0985C1.13994 13.8216 0.984375 13.4461 0.984375 13.0545V2.46094C0.984375 2.06933 1.13994 1.69376 1.41685 1.41685C1.69376 1.13994 2.06933 0.984377 2.46094 0.984377H18.5391C18.9307 0.984377 19.3062 1.13994 19.5831 1.41685C19.8601 1.69376 20.0156 2.06933 20.0156 2.46094V13.0545Z" fill="black"/>
</svg>
